<?xml version="1.0" encoding="UTF-8"?>
<svg version="1.1" xmlns="http://www.w3.org/2000/svg" width="900" height="901">
<path d="M0 0 C1.23270126 -0.00701431 2.46540253 -0.01402863 3.73545837 -0.02125549 C7.68954127 -0.03865929 11.64354321 -0.04568904 15.59765625 -0.046875 C16.2709623 -0.04731686 16.94426834 -0.04775871 17.6379776 -0.04821396 C37.47615069 -0.05504389 57.00800184 0.19214469 76.66015625 3.203125 C77.85415039 3.37473145 79.04814453 3.54633789 80.27832031 3.72314453 C170.00237453 16.74535162 254.27583534 55.86661174 320.82421875 117.5859375 C323.43009836 119.99081263 326.06922532 122.35103007 328.72265625 124.703125 C336.1930594 131.4168796 343.3342122 138.47265231 349.85546875 146.1171875 C352.05031762 148.65409074 354.32434575 151.11134126 356.59765625 153.578125 C361.1869892 158.62776529 365.50335173 163.79311582 369.66015625 169.203125 C370.18206543 169.87956055 370.70397461 170.55599609 371.24169922 171.25292969 C428.50784871 245.71005602 466.500682 338.67113878 466.86328125 433.54296875 C466.87029556 434.77567001 466.87730988 436.00837128 466.88453674 437.27842712 C466.90194054 441.23251002 466.90897029 445.18651196 466.91015625 449.140625 C466.91059811 449.81393105 466.91103996 450.48723709 466.91149521 451.18094635 C466.91832514 471.01911944 466.67113656 490.55097059 463.66015625 510.203125 C463.4885498 511.39711914 463.31694336 512.59111328 463.14013672 513.82128906 C449.89218399 605.10074891 409.72108893 688.26163017 347.66015625 756.203125 C346.78488281 757.17121094 345.90960937 758.13929688 345.0078125 759.13671875 C337.29644246 767.64412752 329.43913554 775.97243353 320.69921875 783.44140625 C318.43323395 785.39918239 316.23872131 787.42541448 314.03515625 789.453125 C308.44085915 794.49395282 302.56210546 799.11402212 296.59912109 803.70556641 C294.59767931 805.25137904 292.60716568 806.81055942 290.6171875 808.37109375 C230.93554483 854.92137733 159.25750144 884.58392841 84.59765625 896.015625 C83.32817139 896.2105957 82.05868652 896.40556641 80.75073242 896.60644531 C76.72535475 897.19096139 72.69891775 897.72116307 68.66015625 898.203125 C67.88013245 898.2963504 67.10010864 898.38957581 66.29644775 898.48562622 C49.9288082 900.36679112 33.62131851 900.5636448 17.16015625 900.515625 C15.81779996 900.51340267 14.47544359 900.51122615 13.13308716 900.50909424 C-5.86833486 900.4672772 -24.53163637 900.12802857 -43.33984375 897.203125 C-44.69862023 897.00169634 -46.05751294 896.80105063 -47.41650391 896.60107422 C-129.71187427 884.35815099 -206.41408419 850.80707783 -270.58984375 797.64453125 C-272.21458285 796.30629748 -273.85123205 794.98524671 -275.49609375 793.671875 C-280.43875001 789.70688701 -285.04805258 785.63254621 -289.4609375 781.0859375 C-291.26965846 779.27345621 -293.13959856 777.61103364 -295.08984375 775.953125 C-302.81106939 769.29794629 -310.03368377 761.9423504 -316.640625 754.18359375 C-318.62014807 751.87642548 -320.66626495 749.63665718 -322.71484375 747.390625 C-383.33806111 679.95238152 -421.09246129 591.99079194 -431.33984375 502.203125 C-431.47064835 501.08145935 -431.47064835 501.08145935 -431.60409546 499.93713379 C-433.46703591 483.52981794 -433.69933489 467.20306506 -433.65234375 450.703125 C-433.65042055 449.36244722 -433.64858002 448.02176931 -433.64682007 446.68109131 C-433.61055092 427.67911657 -433.22235609 409.01679087 -430.33984375 390.203125 C-430.1682373 389.00913086 -429.99663086 387.81513672 -429.81982422 386.58496094 C-416.79761713 296.86090672 -377.67635701 212.58744591 -315.95703125 146.0390625 C-313.55215612 143.43318289 -311.19193868 140.79405593 -308.83984375 138.140625 C-302.12608915 130.67022185 -295.07031644 123.52906905 -287.42578125 117.0078125 C-284.88887801 114.81296363 -282.43162749 112.5389355 -279.96484375 110.265625 C-274.91520346 105.67629205 -269.74985293 101.35992952 -264.33984375 97.203125 C-263.6634082 96.68121582 -262.98697266 96.15930664 -262.29003906 95.62158203 C-187.87409957 38.38710999 -94.84264536 0.36248771 0 0 Z " fill="#0866FF" transform="translate(433.33984375,-0.203125)"/>
<path d="M0 0 C2.51806374 0.3293921 5.03629863 0.657478 7.5546875 0.984375 C39.22584933 5.22584933 39.22584933 5.22584933 42 8 C42.09600136 9.606892 42.12187889 11.21801769 42.12025452 12.82777405 C42.12231651 14.3948687 42.12231651 14.3948687 42.12442017 15.99362183 C42.12082489 17.14951813 42.11722961 18.30541443 42.11352539 19.49633789 C42.11367142 20.70592667 42.11381744 21.91551544 42.1139679 23.16175842 C42.11338893 26.48806351 42.10835973 29.81430719 42.10139394 33.1406014 C42.09515978 36.61329929 42.09455655 40.08599793 42.09336853 43.55870056 C42.0902554 50.13896193 42.08204225 56.71920676 42.07201904 63.29946083 C42.06085734 70.78906112 42.05534731 78.27866218 42.05032361 85.7682687 C42.03985962 101.17885539 42.02226053 116.58942557 42 132 C41.15127319 131.99111755 40.30254639 131.98223511 39.42810059 131.9730835 C31.31232185 131.89193926 23.19668503 131.83153964 15.08058929 131.79275131 C10.91096784 131.77213758 6.7416896 131.74432005 2.57226562 131.69824219 C-29.44103302 131.35397376 -65.30303153 131.28926655 -90 155 C-119.1857389 188.76389402 -111.42380352 239.66624613 -112 280 C-63.82 280 -15.64 280 34 280 C34 284.86815208 33.91008358 288.30099996 32.96875 292.8828125 C32.73945801 294.02596924 32.51016602 295.16912598 32.27392578 296.34692383 C32.01853027 297.59368896 31.76313477 298.8404541 31.5 300.125 C30.93957065 302.92205194 30.3866255 305.72054638 29.8359375 308.51953125 C29.68849091 309.2680687 29.54104431 310.01660614 29.38912964 310.78782654 C27.50283065 320.43892104 25.82444463 330.12713835 24.125 339.8125 C21.10905927 356.97585126 17.93585263 374.10344944 14.61376953 391.21020508 C14.45332153 392.04078934 14.29287354 392.8713736 14.12756348 393.72712708 C13.83461144 395.24268325 13.5397013 396.75786342 13.24206543 398.27250671 C11.97485085 404.83349216 11.01895143 411.37681569 10 418 C-30.26 418 -70.52 418 -112 418 C-112 519.97 -112 621.94 -112 727 C-124.95198443 728.99261299 -137.20707907 730.15346961 -150.2421875 730.203125 C-151.47607712 730.21018463 -152.70996674 730.21724426 -153.98124695 730.22451782 C-157.94584925 730.24205473 -161.91036697 730.24921006 -165.875 730.25 C-166.88814837 730.25044186 -166.88814837 730.25044186 -167.92176437 730.25089264 C-187.76850144 730.25229194 -207.34897856 730.10533336 -227 727 C-228.04969971 726.83667175 -228.04969971 726.83667175 -229.12060547 726.67004395 C-273.20189966 719.79810034 -273.20189966 719.79810034 -276 717 C-276.09704736 715.4048758 -276.1237162 713.80543188 -276.12304783 712.20735836 C-276.12503888 711.16383203 -276.12702993 710.12030571 -276.12908131 709.04515737 C-276.12616847 707.88467667 -276.12325563 706.72419598 -276.12025452 705.52854919 C-276.12110894 704.30671261 -276.12196337 703.08487603 -276.12284368 701.8260141 C-276.12421192 698.41918169 -276.12106427 695.01240603 -276.11606562 691.60558045 C-276.11176457 687.93753375 -276.1132073 684.26948894 -276.1139679 680.60144043 C-276.11449335 674.24118569 -276.11134431 667.88094118 -276.10573006 661.52068901 C-276.09761796 652.32472655 -276.09500014 643.12876905 -276.09374207 633.9328034 C-276.09155109 619.01452563 -276.08488976 604.09625332 -276.07543945 589.17797852 C-276.06626652 574.68253609 -276.05918511 560.18709514 -276.05493164 545.69165039 C-276.05466892 544.79880144 -276.05440619 543.90595248 -276.05413551 542.9860475 C-276.05283051 538.50708084 -276.05156679 534.02811417 -276.05032361 529.54914749 C-276.03994957 492.36609447 -276.02233001 455.18304766 -276 418 C-277.1503624 418.00222061 -278.30072479 418.00444122 -279.48594666 418.00672913 C-290.30200059 418.02695922 -301.1180507 418.0419715 -311.93411922 418.05181217 C-317.49539411 418.05704134 -323.05665379 418.06413958 -328.61791992 418.07543945 C-333.98007419 418.08626715 -339.34221378 418.09227658 -344.70437813 418.09487724 C-346.75500278 418.09673171 -348.8056266 418.10035272 -350.85624504 418.10573006 C-353.71790203 418.11293893 -356.57949757 418.11399101 -359.44116211 418.11352539 C-360.29783478 418.11712067 -361.15450745 418.12071594 -362.03713989 418.12442017 C-367.88594784 418.11405216 -367.88594784 418.11405216 -369 417 C-369.09634459 415.22839682 -369.12187481 413.45291592 -369.12025452 411.67869568 C-369.12162918 410.52458191 -369.12300385 409.37046814 -369.12442017 408.18138123 C-369.12082489 406.90392532 -369.11722961 405.62646942 -369.11352539 404.31030273 C-369.11324352 402.96041872 -369.11340125 401.61053456 -369.1139679 400.26065063 C-369.11425587 396.58519392 -369.10835916 392.90976957 -369.10139394 389.2343204 C-369.09516038 385.39726851 -369.0945566 381.56021596 -369.09336853 377.72315979 C-369.09025522 370.45228782 -369.08204183 363.18143081 -369.07201904 355.91056544 C-369.05877265 346.08887685 -369.053358 336.26718419 -369.04751682 326.44548893 C-369.03810194 310.96364807 -369.01818303 295.48183879 -369 280 C-338.31 280 -307.62 280 -276 280 C-276.11760049 255.90650778 -276.11760049 255.90650778 -276.27026367 231.81323242 C-276.54761604 165.55315242 -267.9632636 96.56628018 -219.3203125 47.28515625 C-190.33591025 20.06390013 -152.75082787 6.23690973 -114 0 C-112.49155518 -0.2477417 -112.49155518 -0.2477417 -110.95263672 -0.50048828 C-74.96362495 -6.07138221 -35.98379751 -5.09075151 0 0 Z " fill="#FEFEFF" transform="translate(617,170)"/>
</svg>
