<?xml version="1.0" encoding="UTF-8"?>
<svg version="1.1" xmlns="http://www.w3.org/2000/svg" width="500" height="459">
<path d="M0 0 C18.30658235 -0.3745975 36.61216389 -0.65630472 54.92175674 -0.82899475 C63.42440522 -0.91132917 71.92466611 -1.02345783 80.42578125 -1.20703125 C87.83995703 -1.36705624 95.25240365 -1.46985426 102.66825843 -1.50541592 C106.59215775 -1.52619301 110.51111316 -1.57459299 114.43341827 -1.69168091 C140.18207715 -2.43064974 140.18207715 -2.43064974 146.44714355 3.38720703 C149.17156563 6.62203022 151.12004422 10.0499436 152.89928436 13.87283325 C154.51206747 16.9895861 156.64744131 19.62294233 158.84079361 22.3500824 C160 24 160 24 160 26 C160.66 26 161.32 26 162 26 C162.97880176 27.39949625 163.9484572 28.80658358 164.86279297 30.24902344 C166.75927516 33.16906859 168.92371428 35.88017155 171.0625 38.625 C172.70944533 40.74914346 174.3549714 42.87437039 176 45 C176.59683594 45.75023437 177.19367188 46.50046875 177.80859375 47.2734375 C179 49 179 49 179 51 C179.66 51 180.32 51 181 51 C185 56.41176471 185 56.41176471 185 59 C185.66 59 186.32 59 187 59 C188.22094727 60.31347656 188.22094727 60.31347656 189.56640625 62.140625 C190.05173828 62.79933594 190.53707031 63.45804688 191.03710938 64.13671875 C191.54048828 64.83410156 192.04386719 65.53148438 192.5625 66.25 C193.06974609 66.93191406 193.57699219 67.61382812 194.09960938 68.31640625 C197.89850614 73.52661086 197.89850614 73.52661086 198.46459961 76.16699219 C198.64128174 76.77188477 198.81796387 77.37677734 199 78 C199.99 78.33 200.98 78.66 202 79 C202 79.66 202 80.32 202 81 C202.66 81 203.32 81 204 81 C205.5078125 82.64453125 205.5078125 82.64453125 207.125 84.8125 C207.66382813 85.52019531 208.20265625 86.22789063 208.7578125 86.95703125 C210 89 210 89 210 92 C210.66 92 211.32 92 212 92 C213.63139937 93.92587579 215.13723225 95.84326717 216.625 97.875 C217.04523438 98.43058594 217.46546875 98.98617187 217.8984375 99.55859375 C221 103.73764712 221 103.73764712 221 106 C221.66 106 222.32 106 223 106 C223.33 107.65 223.66 109.3 224 111 C224.99 111.33 225.98 111.66 227 112 C228.60546875 113.84765625 228.60546875 113.84765625 230.1875 116.0625 C230.71730469 116.79597656 231.24710938 117.52945313 231.79296875 118.28515625 C232.19128906 118.85105469 232.58960938 119.41695313 233 120 C235.74443937 117.33397318 238.29999628 114.67898532 240.6875 111.6875 C241.450625 110.800625 242.21375 109.91375 243 109 C243.66 109 244.32 109 245 109 C245.33 108.01 245.66 107.02 246 106 C246.66 106 247.32 106 248 106 C248.309375 105.38125 248.61875 104.7625 248.9375 104.125 C249.625 102.75 250.3125 101.375 251 100 C251.66 100 252.32 100 253 100 C253.33 99.01 253.66 98.02 254 97 C254.66 97 255.32 97 256 97 C256.23589844 96.44570312 256.47179687 95.89140625 256.71484375 95.3203125 C258.3126455 92.43552758 260.31851009 90.28827968 262.5625 87.875 C265.63719186 84.68492491 265.63719186 84.68492491 268 81 C268.66 81 269.32 81 270 81 C270.33 80.01 270.66 79.02 271 78 C271.66 78 272.32 78 273 78 C273.309375 77.38125 273.61875 76.7625 273.9375 76.125 C274.625 74.75 275.3125 73.375 276 72 C276.66 72 277.32 72 278 72 C278.23589844 71.44570312 278.47179687 70.89140625 278.71484375 70.3203125 C280.3126455 67.43552758 282.31851009 65.28827968 284.5625 62.875 C287.63719186 59.68492491 287.63719186 59.68492491 290 56 C290.66 56 291.32 56 292 56 C292.33 55.01 292.66 54.02 293 53 C293.66 53 294.32 53 295 53 C295.33 52.01 295.66 51.02 296 50 C296.66 50 297.32 50 298 50 C298.32291016 48.95392578 298.32291016 48.95392578 298.65234375 47.88671875 C300.34920703 44.25198843 302.81019908 41.66347496 305.5625 38.8125 C309.18976885 35.20855319 309.18976885 35.20855319 312 31 C312.66 31 313.32 31 314 31 C314.33 30.01 314.66 29.02 315 28 C315.66 28 316.32 28 317 28 C317.4640625 27.071875 317.4640625 27.071875 317.9375 26.125 C318.625 24.75 319.3125 23.375 320 22 C320.66 22 321.32 22 322 22 C322.4021875 21.12021484 322.4021875 21.12021484 322.8125 20.22265625 C324.00796745 17.98508723 325.31273879 16.32301441 327 14.4375 C328.87746278 12.33004803 330.42221686 10.36667471 332 8 C332.66 8 333.32 8 334 8 C334 7.34 334 6.68 334 6 C334.66 6 335.32 6 336 6 C336.33 5.01 336.66 4.02 337 3 C337.66 3 338.32 3 339 3 C339.33 2.01 339.66 1.02 340 0 C364.09 0 388.18 0 413 0 C412.67 1.65 412.34 3.3 412 5 C411.34 5 410.68 5 410 5 C409.62875 5.8353125 409.62875 5.8353125 409.25 6.6875 C407.15837296 10.55701002 404.33694534 14.11809266 401 17 C400.34 17 399.68 17 399 17 C398.71125 17.598125 398.4225 18.19625 398.125 18.8125 C397 21 397 21 395 24 C394.34 24 393.68 24 393 24 C392.62875 24.86625 392.62875 24.86625 392.25 25.75 C390.81700012 28.32939979 389.21575324 30.06121592 387 32 C386.34 32 385.68 32 385 32 C384.91621094 32.55171875 384.83242188 33.1034375 384.74609375 33.671875 C383.75830535 36.75418854 382.09258173 38.73901284 380.0625 41.25 C378.99708984 42.58804688 378.99708984 42.58804688 377.91015625 43.953125 C377.27980469 44.62859375 376.64945312 45.3040625 376 46 C375.34 46 374.68 46 374 46 C373.76410156 46.55429688 373.52820313 47.10859375 373.28515625 47.6796875 C371.6873545 50.56447242 369.68148991 52.71172032 367.4375 55.125 C364.36280814 58.31507509 364.36280814 58.31507509 362 62 C361.34 62 360.68 62 360 62 C359.7525 62.556875 359.505 63.11375 359.25 63.6875 C357.77075182 66.42410913 356.06532561 68.67650869 354 71 C353.34 71 352.68 71 352 71 C351.67 71.99 351.34 72.98 351 74 C350.34 74 349.68 74 349 74 C348.731875 74.5775 348.46375 75.155 348.1875 75.75 C346.97070811 78.05550043 345.69666121 80.02056192 344 82 C343.34 82 342.68 82 342 82 C342 82.66 342 83.32 342 84 C341.34 84 340.68 84 340 84 C339.690625 84.61875 339.38125 85.2375 339.0625 85.875 C338.375 87.25 337.6875 88.625 337 90 C336.34 90 335.68 90 335 90 C334.67 90.99 334.34 91.98 334 93 C333.34 93 332.68 93 332 93 C331.67 93.99 331.34 94.98 331 96 C330.34 96 329.68 96 329 96 C328.78085937 96.53753906 328.56171875 97.07507813 328.3359375 97.62890625 C326.54194161 100.81298668 324.1237784 103.30391908 321.625 105.9375 C318.25356868 109.52077259 315.05955127 113.14086838 312 117 C310.33333333 118.66666667 308.66666667 120.33333333 307 122 C306.443125 122.763125 305.88625 123.52625 305.3125 124.3125 C304.879375 124.869375 304.44625 125.42625 304 126 C303.34 126 302.68 126 302 126 C301.67 126.99 301.34 127.98 301 129 C300.34 129 299.68 129 299 129 C298.73960937 129.5671875 298.47921875 130.134375 298.2109375 130.71875 C296.89131636 133.20474595 295.36127991 135.28605357 293.625 137.5 C293.03976562 138.2528125 292.45453125 139.005625 291.8515625 139.78125 C290.00014179 141.9998301 288.14279458 144.06002137 286 146 C285.34 146 284.68 146 284 146 C283.731875 146.763125 283.46375 147.52625 283.1875 148.3125 C282.04865495 150.88988618 281.18583329 152.26954864 279 154 C278.34 154 277.68 154 277 154 C276.67 154.99 276.34 155.98 276 157 C275.34 157 274.68 157 274 157 C273.67 158.32 273.34 159.64 273 161 C272.34 161 271.68 161 271 161 C269.16304566 165.33927969 269.16304566 165.33927969 269.875 169.875 C270.24625 170.57625 270.6175 171.2775 271 172 C271.66 172 272.32 172 273 172 C274.63139937 173.92587579 276.13723225 175.84326717 277.625 177.875 C278.04523438 178.43058594 278.46546875 178.98617187 278.8984375 179.55859375 C282 183.73764712 282 183.73764712 282 186 C282.66 186 283.32 186 284 186 C284.33 187.32 284.66 188.64 285 190 C285.66 190 286.32 190 287 190 C287.33 191.32 287.66 192.64 288 194 C288.66 194 289.32 194 290 194 C291.91015625 196.265625 291.91015625 196.265625 294.0625 199.25 C294.77535156 200.22453125 295.48820312 201.1990625 296.22265625 202.203125 C297.75415249 204.61312787 298.56996146 206.22128943 299 209 C299.66 209 300.32 209 301 209 C302.5606433 211.07592212 304.01261599 213.14640008 305.4375 215.3125 C307.75141637 218.79658615 309.98314825 222.08294233 313 225 C314.73740947 227.12874291 316.44191196 229.26694698 318.125 231.4375 C318.58003906 232.01048828 319.03507812 232.58347656 319.50390625 233.17382812 C323.55781347 238.40060168 323.55781347 238.40060168 324 242 C324.66 242 325.32 242 326 242 C329 245.46153846 329 245.46153846 329 248 C329.66 248 330.32 248 331 248 C335 253.41176471 335 253.41176471 335 256 C335.66 256 336.32 256 337 256 C337.0825 256.78375 337.165 257.5675 337.25 258.375 C337.4975 259.24125 337.745 260.1075 338 261 C339.31647119 261.69937532 340.65022151 262.36729133 342 263 C342.75 265.125 342.75 265.125 343 267 C343.66 267 344.32 267 345 267 C349 272.41176471 349 272.41176471 349 275 C349.66 275 350.32 275 351 275 C354 278.46153846 354 278.46153846 354 281 C354.66 281 355.32 281 356 281 C360 286.41176471 360 286.41176471 360 289 C360.66 289 361.32 289 362 289 C362.33 290.32 362.66 291.64 363 293 C363.66 293 364.32 293 365 293 C366.63429751 295.0944968 368.14167234 297.17782091 369.625 299.375 C370.04523438 299.97828125 370.46546875 300.5815625 370.8984375 301.203125 C374 305.73462865 374 305.73462865 374 308 C374.99 308.33 375.98 308.66 377 309 C378.27099609 310.50292969 378.27099609 310.50292969 379.5234375 312.421875 C379.9875 313.11796875 380.4515625 313.8140625 380.9296875 314.53125 C381.40664063 315.2634375 381.88359375 315.995625 382.375 316.75 C385.59631317 321.67046737 388.75543524 325.88635526 393 330 C394.41343376 331.82503809 395.78948887 333.67969118 397.125 335.5625 C398.11886719 336.95662109 398.11886719 336.95662109 399.1328125 338.37890625 C399.74898438 339.24386719 400.36515625 340.10882813 401 341 C401.57492187 341.73089844 402.14984375 342.46179688 402.7421875 343.21484375 C404 345 404 345 404 347 C404.66 347 405.32 347 406 347 C410 352.41176471 410 352.41176471 410 355 C410.66 355 411.32 355 412 355 C412.33 356.32 412.66 357.64 413 359 C413.66 359 414.32 359 415 359 C416.53853703 361.05534291 417.97019196 363.10606094 419.375 365.25 C421.97272078 369.18987652 424.59286578 372.71406819 428 376 C429.45913533 377.71475028 430.87474995 379.46726846 432.25 381.25 C433.30960937 382.58804688 433.30960937 382.58804688 434.390625 383.953125 C436 387 436 387 436 395 C391.12 395 346.24 395 300 395 C300 394.34 300 393.68 300 393 C299.34 393 298.68 393 298 393 C296.4921875 391.1015625 296.4921875 391.1015625 294.875 388.625 C294.33617187 387.81289063 293.79734375 387.00078125 293.2421875 386.1640625 C292 384 292 384 292 382 C291.01 381.67 290.02 381.34 289 381 C286.95703125 378.56640625 286.95703125 378.56640625 284.8125 375.5625 C284.09707031 374.57378906 283.38164062 373.58507812 282.64453125 372.56640625 C281 370 281 370 281 368 C280.34 368 279.68 368 279 368 C275 362.58823529 275 362.58823529 275 360 C274.34 360 273.68 360 273 360 C270 356.53846154 270 356.53846154 270 354 C269.34 354 268.68 354 268 354 C264 348.58823529 264 348.58823529 264 346 C263.34 346 262.68 346 262 346 C260.36860063 344.07412421 258.86276775 342.15673283 257.375 340.125 C256.95476562 339.56941406 256.53453125 339.01382812 256.1015625 338.44140625 C253 334.26235288 253 334.26235288 253 332 C252.34 332 251.68 332 251 332 C250.67 330.68 250.34 329.36 250 328 C249.34 328 248.68 328 248 328 C246.4921875 326.3203125 246.4921875 326.3203125 244.875 324.125 C244.33617187 323.40570313 243.79734375 322.68640625 243.2421875 321.9453125 C242 320 242 320 242 318 C241.34 318 240.68 318 240 318 C238.21694476 315.36107824 237.00940379 313.02821137 236 310 C235.34 310 234.68 310 234 310 C231 306.53846154 231 306.53846154 231 304 C230.34 304 229.68 304 229 304 C225 298.58823529 225 298.58823529 225 296 C224.34 296 223.68 296 223 296 C221.4921875 294.1015625 221.4921875 294.1015625 219.875 291.625 C219.33617187 290.81289063 218.79734375 290.00078125 218.2421875 289.1640625 C217 287 217 287 217 285 C216.01 284.67 215.02 284.34 214 284 C211.95703125 281.56640625 211.95703125 281.56640625 209.8125 278.5625 C209.09707031 277.57378906 208.38164062 276.58507812 207.64453125 275.56640625 C206 273 206 273 206 271 C205.34 271 204.68 271 204 271 C203.67 269.68 203.34 268.36 203 267 C202.34 267 201.68 267 201 267 C198 262.61538462 198 262.61538462 198 260 C195.21068153 260.36089866 194.15973471 260.82730436 192.21875 262.92578125 C191.6515625 263.71339844 191.084375 264.50101562 190.5 265.3125 C188.18958081 268.48932638 185.80243875 271.24903461 183 274 C182.29875 274.9075 181.5975 275.815 180.875 276.75 C180.25625 277.4925 179.6375 278.235 179 279 C178.34 279 177.68 279 177 279 C176.67 279.99 176.34 280.98 176 282 C175.34 282 174.68 282 174 282 C173.67 283.32 173.34 284.64 173 286 C172.34 286 171.68 286 171 286 C170.71125 286.598125 170.4225 287.19625 170.125 287.8125 C169 290 169 290 167 293 C166.34 293 165.68 293 165 293 C164.690625 293.61875 164.38125 294.2375 164.0625 294.875 C163.375 296.25 162.6875 297.625 162 299 C161.34 299 160.68 299 160 299 C159.76410156 299.55429687 159.52820313 300.10859375 159.28515625 300.6796875 C157.6873545 303.56447242 155.68148991 305.71172032 153.4375 308.125 C150.36280814 311.31507509 150.36280814 311.31507509 148 315 C147.34 315 146.68 315 146 315 C145.690625 315.61875 145.38125 316.2375 145.0625 316.875 C144.375 318.25 143.6875 319.625 143 321 C142.34 321 141.68 321 141 321 C140.67 321.99 140.34 322.98 140 324 C139.34 324 138.68 324 138 324 C137.76410156 324.55429687 137.52820313 325.10859375 137.28515625 325.6796875 C135.6873545 328.56447242 133.68148991 330.71172032 131.4375 333.125 C128.36280814 336.31507509 128.36280814 336.31507509 126 340 C125.34 340 124.68 340 124 340 C123.67 340.99 123.34 341.98 123 343 C122.34 343 121.68 343 121 343 C121 343.99 121 344.98 121 346 C120.34 346 119.68 346 119 346 C118.773125 346.53625 118.54625 347.0725 118.3125 347.625 C115.97768371 351.84990566 112.67624683 355.84893129 109 359 C108.34 359 107.68 359 107 359 C106.62875 359.8353125 106.62875 359.8353125 106.25 360.6875 C104.77075182 363.42410913 103.06532561 365.67650869 101 368 C100.34 368 99.68 368 99 368 C98.67 368.99 98.34 369.98 98 371 C97.34 371 96.68 371 96 371 C95.7525 371.721875 95.505 372.44375 95.25 373.1875 C93.44256559 377.25422741 91.16500103 380.11092027 87.625 382.8125 C84.58052123 385.34956564 82.57543419 388.1468656 80.33203125 391.390625 C79.89246094 391.92171875 79.45289062 392.4528125 79 393 C78.34 393 77.68 393 77 393 C77 393.66 77 394.32 77 395 C69.1476611 396.1079072 61.4768582 396.04235366 53.55859375 395.87890625 C52.18141038 395.85455336 50.80421787 395.83071256 49.42701721 395.80735779 C45.83162893 395.74503025 42.23640599 395.67582315 38.64117432 395.60510254 C34.96072816 395.5339503 31.28016635 395.46941564 27.59960938 395.40429688 C20.39961151 395.27594798 13.1997756 395.14031914 6 395 C6.92884056 389.84206028 8.3975598 387.77816899 12 384 C12.66 384 13.32 384 14 384 C14.39445312 383.12601562 14.39445312 383.12601562 14.796875 382.234375 C16.05711551 379.89392833 17.45619689 378.20540699 19.25 376.25 C22.34166456 372.81625147 25.08487516 369.24894498 27.73828125 365.46875 C28.15464844 364.9840625 28.57101563 364.499375 29 364 C29.66 364 30.32 364 31 364 C31.33 363.01 31.66 362.02 32 361 C32.66 361 33.32 361 34 361 C34.25910156 360.43410156 34.51820312 359.86820312 34.78515625 359.28515625 C36.120718 356.77292595 37.67882623 354.67271763 39.4375 352.4375 C40.33275391 351.29087891 40.33275391 351.29087891 41.24609375 350.12109375 C42.76131474 348.288655 44.20809838 346.56229863 46 345 C46.66 345 47.32 345 48 345 C48.309375 344.38125 48.61875 343.7625 48.9375 343.125 C49.625 341.75 50.3125 340.375 51 339 C51.66 339 52.32 339 53 339 C53.33 338.01 53.66 337.02 54 336 C54.66 336 55.32 336 56 336 C56.39058594 335.14921875 56.39058594 335.14921875 56.7890625 334.28125 C58.10868364 331.79525405 59.63872009 329.71394643 61.375 327.5 C61.96023437 326.7471875 62.54546875 325.994375 63.1484375 325.21875 C64.99051115 323.0113706 66.96001829 321.02326054 69 319 C69.70125 318.0925 70.4025 317.185 71.125 316.25 C72.053125 315.13625 72.053125 315.13625 73 314 C73.66 314 74.32 314 75 314 C75.33 313.01 75.66 312.02 76 311 C76.66 311 77.32 311 78 311 C78.37125 310.195625 78.37125 310.195625 78.75 309.375 C81.51219298 304.12683333 84.39886532 300.68090775 89 297 C90.34216975 295.00591923 91.6772113 293.00698975 93 291 C93.66 291 94.32 291 95 291 C95.268125 290.360625 95.53625 289.72125 95.8125 289.0625 C97 287 97 287 100 286 C100.73323796 283.98491642 100.73323796 283.98491642 101 282 C101.66 282 102.32 282 103 282 C103.33 280.68 103.66 279.36 104 278 C104.66 278 105.32 278 106 278 C106.33 277.01 106.66 276.02 107 275 C107.66 275 108.32 275 109 275 C109.25910156 274.43410156 109.51820313 273.86820312 109.78515625 273.28515625 C111.120718 270.77292595 112.67882623 268.67271763 114.4375 266.4375 C115.03433594 265.67308594 115.63117188 264.90867187 116.24609375 264.12109375 C117.76131474 262.288655 119.20809838 260.56229863 121 259 C121.66 259 122.32 259 123 259 C123 258.01 123 257.02 123 256 C123.66 256 124.32 256 125 256 C125.33 255.01 125.66 254.02 126 253 C126.66 253 127.32 253 128 253 C128.33 252.01 128.66 251.02 129 250 C129.66 250 130.32 250 131 250 C131.26167969 249.43152344 131.52335938 248.86304688 131.79296875 248.27734375 C135.07447996 242.08601353 140.01116061 236.85026051 145 232 C145.556875 231.236875 146.11375 230.47375 146.6875 229.6875 C147.120625 229.130625 147.55375 228.57375 148 228 C148.66 228 149.32 228 150 228 C150.33 227.01 150.66 226.02 151 225 C151.66 225 152.32 225 153 225 C153.3403125 223.9171875 153.3403125 223.9171875 153.6875 222.8125 C155.24831013 219.46790687 157.3031287 217.48396041 160 215 C158.80100302 211.9168649 157.52299523 208.93720508 156 206 C155.34 206 154.68 206 154 206 C153.67 204.68 153.34 203.36 153 202 C152.34 202 151.68 202 151 202 C150.67 200.68 150.34 199.36 150 198 C149.34 198 148.68 198 148 198 C146.3589968 195.86399583 144.82481603 193.72450809 143.3125 191.5 C139.87863264 186.54170555 136.3726129 181.90794566 132.1796875 177.55078125 C131 176 131 176 131 173 C130.34 173 129.68 173 129 173 C125 167.58823529 125 167.58823529 125 165 C124.34 165 123.68 165 123 165 C120 161.53846154 120 161.53846154 120 159 C119.34 159 118.68 159 118 159 C114 153.58823529 114 153.58823529 114 151 C113.34 151 112.68 151 112 151 C110.5760131 149.28480923 109.2336784 147.5012088 107.9375 145.6875 C107.22464844 144.70136719 106.51179688 143.71523437 105.77734375 142.69921875 C104 140 104 140 103 137 C102.34 137 101.68 137 101 137 C100.08994391 135.70492018 99.19365023 134.39886315 98.3515625 133.05859375 C95.9391008 129.38412174 93.24296368 125.90848433 90.609375 122.390625 C89 120 89 120 89 118 C87.515 117.505 87.515 117.505 86 117 C84.8125 114.4375 84.8125 114.4375 84 112 C83.34 112 82.68 112 82 112 C78 106.58823529 78 106.58823529 78 104 C77.34 104 76.68 104 76 104 C74.36860063 102.07412421 72.86276775 100.15673283 71.375 98.125 C70.95476562 97.56941406 70.53453125 97.01382813 70.1015625 96.44140625 C67 92.26235288 67 92.26235288 67 90 C66.34 90 65.68 90 65 90 C64.67 88.35 64.34 86.7 64 85 C63.01 84.67 62.02 84.34 61 84 C60.33333333 82.33333333 59.66666667 80.66666667 59 79 C58.01 78.67 57.02 78.34 56 78 C53 73.66666667 53 73.66666667 53 71 C52.01 70.67 51.02 70.34 50 70 C48.8125 67.4375 48.8125 67.4375 48 65 C47.34 65 46.68 65 46 65 C42 59.58823529 42 59.58823529 42 57 C41.01 56.67 40.02 56.34 39 56 C39 55.01 39 54.02 39 53 C38.34 53 37.68 53 37 53 C35.81079102 51.68652344 35.81079102 51.68652344 34.50390625 49.859375 C33.78944336 48.87130859 33.78944336 48.87130859 33.06054688 47.86328125 C32.56619141 47.16589844 32.07183594 46.46851563 31.5625 45.75 C30.58469544 44.39058183 29.60683248 43.03120565 28.62890625 41.671875 C28.17273926 41.03056641 27.71657227 40.38925781 27.24658203 39.72851562 C26.24694089 38.34240922 25.20601557 36.98611713 24.15234375 35.640625 C23 34 23 34 23 32 C22.01 31.67 21.02 31.34 20 31 C18.26005358 28.7807695 16.64660181 26.57554619 15.0625 24.25 C14.2005701 23.00427223 13.33730854 21.75946471 12.47265625 20.515625 C12.05902832 19.91685547 11.64540039 19.31808594 11.21923828 18.70117188 C10.10350131 17.14441272 8.89721305 15.6535957 7.68359375 14.171875 C6 12 6 12 6 10 C5.34 10 4.68 10 4 10 C1.1605948 6.32547562 0 4.73113419 0 0 Z M81 37 C81.33 37.99 81.66 38.98 82 40 C82.66 40 83.32 40 84 40 C84.33 41.32 84.66 42.64 85 44 C85.66 44 86.32 44 87 44 C87.33 45.32 87.66 46.64 88 48 C88.66 48 89.32 48 90 48 C90.2578125 48.72574219 90.515625 49.45148438 90.78125 50.19921875 C92.05242499 53.12047667 93.54016402 55.30872649 95.5 57.8125 C96.1084375 58.60269531 96.716875 59.39289063 97.34375 60.20703125 C97.8903125 60.79871094 98.436875 61.39039062 99 62 C99.66 62 100.32 62 101 62 C101.2578125 62.55171875 101.515625 63.1034375 101.78125 63.671875 C103.17963125 66.34314175 104.78763305 68.76851909 106.5 71.25 C107.1084375 72.14203125 107.716875 73.0340625 108.34375 73.953125 C108.8903125 74.62859375 109.436875 75.3040625 110 76 C110.66 76 111.32 76 112 76 C112.20625 76.66 112.4125 77.32 112.625 78 C114.22302477 81.48659949 116.30629215 84.22051539 118.66015625 87.23046875 C120 89 120 89 121 91 C121.66 91 122.32 91 123 91 C123.495 92.98 123.495 92.98 124 95 C124.66 95 125.32 95 126 95 C126.2578125 95.55171875 126.515625 96.1034375 126.78125 96.671875 C128.17963125 99.34314175 129.78763305 101.76851909 131.5 104.25 C132.41265625 105.58804688 132.41265625 105.58804688 133.34375 106.953125 C133.8903125 107.62859375 134.436875 108.3040625 135 109 C135.66 109 136.32 109 137 109 C137.38671875 110.08861328 137.38671875 110.08861328 137.78125 111.19921875 C139.05242499 114.12047667 140.54016402 116.30872649 142.5 118.8125 C143.41265625 119.99779297 143.41265625 119.99779297 144.34375 121.20703125 C144.8903125 121.79871094 145.436875 122.39039063 146 123 C146.66 123 147.32 123 148 123 C148.28875 123.763125 148.5775 124.52625 148.875 125.3125 C149.96269013 128.15029308 149.96269013 128.15029308 152 131 C152.66 131 153.32 131 154 131 C154.4021875 132.1446875 154.4021875 132.1446875 154.8125 133.3125 C155.96603641 135.92313504 156.98629865 137.07385089 159 139 C159.33 139.99 159.66 140.98 160 142 C160.66 142 161.32 142 162 142 C162.2578125 142.55171875 162.515625 143.1034375 162.78125 143.671875 C164.17963125 146.34314175 165.78763305 148.76851909 167.5 151.25 C168.1084375 152.14203125 168.716875 153.0340625 169.34375 153.953125 C169.8903125 154.62859375 170.436875 155.3040625 171 156 C171.66 156 172.32 156 173 156 C173.2578125 156.55171875 173.515625 157.1034375 173.78125 157.671875 C175.17963125 160.34314175 176.78763305 162.76851909 178.5 165.25 C179.1084375 166.14203125 179.716875 167.0340625 180.34375 167.953125 C180.8903125 168.62859375 181.436875 169.3040625 182 170 C182.66 170 183.32 170 184 170 C184.28875 170.763125 184.5775 171.52625 184.875 172.3125 C185.96269013 175.15029308 185.96269013 175.15029308 188 178 C188.66 178 189.32 178 190 178 C190.4021875 179.1446875 190.4021875 179.1446875 190.8125 180.3125 C191.96603641 182.92313504 192.98629865 184.07385089 195 186 C195.33 186.99 195.66 187.98 196 189 C197.37514541 190.7087646 197.37514541 190.7087646 199 192 C199.66 192 200.32 192 201 192 C201 192.99 201 193.98 201 195 C201.66 195 202.32 195 203 195 C205 199 205 199 205.875 201 C206.96067897 203.14043225 206.96067897 203.14043225 209 205 C210.97303774 206.97303774 211.77145934 208.54291869 213 211 C214.31328657 212.35308313 215.64499081 213.68870078 217 215 C217.33 215.66 217.66 216.32 218 217 C218.66 217 219.32 217 220 217 C221.33333333 219.66666667 222.66666667 222.33333333 224 225 C224.66 225 225.32 225 226 225 C227 227 228 229 229 231 C229.66 231 230.32 231 231 231 C231.433125 232.1446875 231.433125 232.1446875 231.875 233.3125 C232.96269013 236.15029308 232.96269013 236.15029308 235 239 C235.66 239 236.32 239 237 239 C237.4021875 240.1446875 237.4021875 240.1446875 237.8125 241.3125 C238.96603641 243.92313504 239.98629865 245.07385089 242 247 C242.33 247.99 242.66 248.98 243 250 C244.37514541 251.7087646 244.37514541 251.7087646 246 253 C246.66 253 247.32 253 248 253 C248.2475 253.70125 248.495 254.4025 248.75 255.125 C250.5825839 259.33994298 252.87062034 262.87062034 256.125 266.125 C258.02614291 268.02614291 258.81203927 269.62407853 260 272 C261.31328657 273.35308313 262.64499081 274.68870078 264 276 C264.33 276.66 264.66 277.32 265 278 C265.66 278 266.32 278 267 278 C267.433125 279.1446875 267.433125 279.1446875 267.875 280.3125 C268.96269013 283.15029308 268.96269013 283.15029308 271 286 C271.66 286 272.32 286 273 286 C273.33 287.32 273.66 288.64 274 290 C274.66 290 275.32 290 276 290 C276.25007812 290.54914063 276.50015625 291.09828125 276.7578125 291.6640625 C278.23403978 294.44011254 280.00109676 296.85053413 281.875 299.375 C284.07354448 302.35533737 286.25481326 305.31702794 288.25 308.4375 C289.88484455 311.00637397 289.88484455 311.00637397 291.91162109 312.88964844 C293.93135645 314.93063423 295.52486062 316.97606932 297.1640625 319.328125 C297.72867188 320.12734375 298.29328125 320.9265625 298.875 321.75 C300.0515774 323.43082485 301.22602329 325.11314358 302.3984375 326.796875 C302.96046875 327.5909375 303.5225 328.385 304.1015625 329.203125 C304.86460693 330.29608887 304.86460693 330.29608887 305.64306641 331.41113281 C306.09085449 331.93545898 306.53864258 332.45978516 307 333 C307.66 333 308.32 333 309 333 C309.33 334.32 309.66 335.64 310 337 C310.66 337 311.32 337 312 337 C312.2578125 337.72574219 312.515625 338.45148438 312.78125 339.19921875 C314.05242499 342.12047667 315.54016402 344.30872649 317.5 346.8125 C318.1084375 347.60269531 318.716875 348.39289063 319.34375 349.20703125 C320.16359375 350.09455078 320.16359375 350.09455078 321 351 C321.66 351 322.32 351 323 351 C323 351.66 323 352.32 323 353 C333.89 353 344.78 353 356 353 C356 352.34 356 351.68 356 351 C355.34 351 354.68 351 354 351 C353.67 350.01 353.34 349.02 353 348 C352.34 348 351.68 348 351 348 C350.896875 347.236875 350.79375 346.47375 350.6875 345.6875 C349.95288806 342.81583516 349.3283935 341.76957906 347 340 C346.34 340 345.68 340 345 340 C345 339.01 345 338.02 345 337 C344.34 337 343.68 337 343 337 C341.66666667 334.33333333 340.33333333 331.66666667 339 329 C338.34 329 337.68 329 337 329 C336.7421875 328.44828125 336.484375 327.8965625 336.21875 327.328125 C334.82036875 324.65685825 333.21236695 322.23148091 331.5 319.75 C330.8915625 318.85796875 330.283125 317.9659375 329.65625 317.046875 C328.83640625 316.03367187 328.83640625 316.03367187 328 315 C327.34 315 326.68 315 326 315 C325.7525 314.29875 325.505 313.5975 325.25 312.875 C323.4174161 308.66005702 321.12937966 305.12937966 317.875 301.875 C315.97385709 299.97385709 315.18796073 298.37592147 314 296 C312.68671343 294.64691687 311.35500919 293.31129922 310 292 C309.67 291.34 309.34 290.68 309 290 C308.34 290 307.68 290 307 290 C306.566875 288.8553125 306.566875 288.8553125 306.125 287.6875 C305.03730987 284.84970692 305.03730987 284.84970692 303 282 C302.34 282 301.68 282 301 282 C300.67 280.68 300.34 279.36 300 278 C299.34 278 298.68 278 298 278 C296.79371992 275.66785852 295.8345262 273.50357861 295 271 C293.67514997 269.65823699 292.34057299 268.32605415 291 267 C289.12593282 264.39053937 287.35893708 261.72573025 285.5859375 259.046875 C285.06257812 258.37140625 284.53921875 257.6959375 284 257 C283.34 257 282.68 257 282 257 C280 253 280 253 279.125 251 C278.06352677 248.89294629 278.06352677 248.89294629 276.15625 247.203125 C273.14645507 244.12789974 270.95420853 240.62513603 268.5859375 237.046875 C268.06257812 236.37140625 267.53921875 235.6959375 267 235 C266.34 235 265.68 235 265 235 C264.67 233.68 264.34 232.36 264 231 C263.34 231 262.68 231 262 231 C261.5978125 229.8553125 261.5978125 229.8553125 261.1875 228.6875 C260.03396359 226.07686496 259.01370135 224.92614911 257 223 C256.67 222.01 256.34 221.02 256 220 C255.34 220 254.68 220 254 220 C252.66666667 217.33333333 251.33333333 214.66666667 250 212 C249.34 212 248.68 212 248 212 C247 210 246 208 245 206 C244.34 206 243.68 206 243 206 C242.566875 204.8553125 242.566875 204.8553125 242.125 203.6875 C241.03730987 200.84970692 241.03730987 200.84970692 239 198 C238.34 198 237.68 198 237 198 C236.61134766 196.90171875 236.61134766 196.90171875 236.21484375 195.78125 C234.96536225 192.92070072 233.53366325 190.90778651 231.5625 188.5 C229.55954447 186.01084987 227.81929092 183.69466396 226.1875 180.9375 C225.5996875 179.9784375 225.5996875 179.9784375 225 179 C224.34 179 223.68 179 223 179 C222.5978125 177.8553125 222.5978125 177.8553125 222.1875 176.6875 C221.03396359 174.07686496 220.01370135 172.92614911 218 171 C217.67 170.01 217.34 169.02 217 168 C215.67514997 166.65823699 214.34057299 165.32605415 213 164 C211.12593282 161.39053937 209.35893708 158.72573025 207.5859375 156.046875 C207.06257813 155.37140625 206.53921875 154.6959375 206 154 C205.34 154 204.68 154 204 154 C202.66666667 151.33333333 201.33333333 148.66666667 200 146 C199.34 146 198.68 146 198 146 C197 144 196 142 195 140 C194.34 140 193.68 140 193 140 C192.71125 139.236875 192.4225 138.47375 192.125 137.6875 C191.03730987 134.84970692 191.03730987 134.84970692 189 132 C188.34 132 187.68 132 187 132 C186.67 130.68 186.34 129.36 186 128 C185.34 128 184.68 128 184 128 C183.5978125 126.8553125 183.5978125 126.8553125 183.1875 125.6875 C182.03396359 123.07686496 181.01370135 121.92614911 179 120 C178.67 119.01 178.34 118.02 178 117 C177.34 117 176.68 117 176 117 C175.7525 116.46375 175.505 115.9275 175.25 115.375 C173.69347463 112.4176018 171.96564327 109.70275949 170 107 C169.34 107 168.68 107 168 107 C167.67 105.68 167.34 104.36 167 103 C166.34 103 165.68 103 165 103 C164.67 101.68 164.34 100.36 164 99 C163.34 99 162.68 99 162 99 C161.505 97.02 161.505 97.02 161 95 C160.34 95 159.68 95 159 95 C158.74992187 94.27683594 158.49984375 93.55367187 158.2421875 92.80859375 C156.89066934 89.75280269 155.26617488 87.61979 153.125 85.0625 C150.79645181 82.24040083 148.56917523 79.47537035 146.625 76.375 C146.08875 75.59125 145.5525 74.8075 145 74 C144.34 74 143.68 74 143 74 C142.505 72.02 142.505 72.02 142 70 C141.34 70 140.68 70 140 70 C139.71125 69.236875 139.4225 68.47375 139.125 67.6875 C138.03730987 64.84970692 138.03730987 64.84970692 136 62 C135.34 62 134.68 62 134 62 C134 61.01 134 60.02 134 59 C133.34 59 132.68 59 132 59 C130.66666667 56.33333333 129.33333333 53.66666667 128 51 C127.34 51 126.68 51 126 51 C125.74347656 50.43667969 125.48695313 49.87335938 125.22265625 49.29296875 C123.85516033 46.72836777 122.24083892 44.59020365 120.4375 42.3125 C119.50744141 41.13107422 119.50744141 41.13107422 118.55859375 39.92578125 C117.14369035 38.10875673 117.14369035 38.10875673 116 37 C113.40640678 36.91148471 110.83960309 36.88474055 108.24609375 36.90234375 C107.47064713 36.9037587 106.6952005 36.90517365 105.89625549 36.90663147 C103.40996506 36.91224655 100.9237634 36.92480154 98.4375 36.9375 C96.75586067 36.94251306 95.07421994 36.9470763 93.39257812 36.95117188 C89.26168434 36.96222087 85.13085724 36.97949555 81 37 Z " fill="#030303" transform="translate(31,34)"/>
<path d="M0 0 C0.99 0 1.98 0 3 0 C2.67 1.65 2.34 3.3 2 5 C1.34 5 0.68 5 0 5 C-0.37125 5.8353125 -0.37125 5.8353125 -0.75 6.6875 C-2.84162704 10.55701002 -5.66305466 14.11809266 -9 17 C-9.66 17 -10.32 17 -11 17 C-11.28875 17.598125 -11.5775 18.19625 -11.875 18.8125 C-13 21 -13 21 -15 24 C-15.66 24 -16.32 24 -17 24 C-17.37125 24.86625 -17.37125 24.86625 -17.75 25.75 C-19.18299988 28.32939979 -20.78424676 30.06121592 -23 32 C-23.66 32 -24.32 32 -25 32 C-25.12568359 32.82757813 -25.12568359 32.82757813 -25.25390625 33.671875 C-26.24169465 36.75418854 -27.90741827 38.73901284 -29.9375 41.25 C-30.64777344 42.14203125 -31.35804688 43.0340625 -32.08984375 43.953125 C-32.72019531 44.62859375 -33.35054688 45.3040625 -34 46 C-34.66 46 -35.32 46 -36 46 C-36.23589844 46.55429688 -36.47179687 47.10859375 -36.71484375 47.6796875 C-38.3126455 50.56447242 -40.31851009 52.71172032 -42.5625 55.125 C-45.63719186 58.31507509 -45.63719186 58.31507509 -48 62 C-48.66 62 -49.32 62 -50 62 C-50.2475 62.556875 -50.495 63.11375 -50.75 63.6875 C-52.22924818 66.42410913 -53.93467439 68.67650869 -56 71 C-56.66 71 -57.32 71 -58 71 C-58.495 72.485 -58.495 72.485 -59 74 C-59.66 74 -60.32 74 -61 74 C-61.268125 74.5775 -61.53625 75.155 -61.8125 75.75 C-63.02929189 78.05550043 -64.30333879 80.02056192 -66 82 C-66.66 82 -67.32 82 -68 82 C-68 82.66 -68 83.32 -68 84 C-68.66 84 -69.32 84 -70 84 C-70.309375 84.61875 -70.61875 85.2375 -70.9375 85.875 C-71.625 87.25 -72.3125 88.625 -73 90 C-73.66 90 -74.32 90 -75 90 C-75.495 91.485 -75.495 91.485 -76 93 C-76.66 93 -77.32 93 -78 93 C-78.495 94.485 -78.495 94.485 -79 96 C-79.66 96 -80.32 96 -81 96 C-81.32871094 96.80630859 -81.32871094 96.80630859 -81.6640625 97.62890625 C-83.45805839 100.81298668 -85.8762216 103.30391908 -88.375 105.9375 C-91.74643132 109.52077259 -94.94044873 113.14086838 -98 117 C-99.66666667 118.66666667 -101.33333333 120.33333333 -103 122 C-103.556875 122.763125 -104.11375 123.52625 -104.6875 124.3125 C-105.120625 124.869375 -105.55375 125.42625 -106 126 C-106.66 126 -107.32 126 -108 126 C-108.495 127.485 -108.495 127.485 -109 129 C-109.66 129 -110.32 129 -111 129 C-111.26039063 129.5671875 -111.52078125 130.134375 -111.7890625 130.71875 C-113.10868364 133.20474595 -114.63872009 135.28605357 -116.375 137.5 C-116.96023438 138.2528125 -117.54546875 139.005625 -118.1484375 139.78125 C-119.99985821 141.9998301 -121.85720542 144.06002137 -124 146 C-124.66 146 -125.32 146 -126 146 C-126.268125 146.763125 -126.53625 147.52625 -126.8125 148.3125 C-127.95134505 150.88988618 -128.81416671 152.26954864 -131 154 C-131.66 154 -132.32 154 -133 154 C-133.33 154.99 -133.66 155.98 -134 157 C-134.66 157 -135.32 157 -136 157 C-136.495 158.98 -136.495 158.98 -137 161 C-137.66 161 -138.32 161 -139 161 C-140.83695434 165.33927969 -140.83695434 165.33927969 -140.125 169.875 C-139.75375 170.57625 -139.3825 171.2775 -139 172 C-139.99 171.67 -140.98 171.34 -142 171 C-142 170.34 -142 169.68 -142 169 C-142.99 168.67 -143.98 168.34 -145 168 C-144.54961229 163.15833214 -143.40027839 160.50331713 -140 157 C-139.34 157 -138.68 157 -138 157 C-137.5978125 156.0409375 -137.5978125 156.0409375 -137.1875 155.0625 C-136 153 -136 153 -133 152 C-132.71125 151.2575 -132.4225 150.515 -132.125 149.75 C-130.70662223 146.28285434 -128.70563987 144.58265624 -126 142 C-124.45185976 140.13678599 -122.93008501 138.25732397 -121.4296875 136.35546875 C-120 135 -120 135 -117 135 C-116.7525 134.05125 -116.505 133.1025 -116.25 132.125 C-114.80880619 128.52201547 -114.2896662 128.54203103 -111 127 C-110.690625 126.21625 -110.38125 125.4325 -110.0625 124.625 C-108.71784631 121.30291441 -106.8310236 120.1232677 -104 118 C-103.01 116.515 -103.01 116.515 -102 115 C-101.34 115 -100.68 115 -100 115 C-99.34 113.35 -98.68 111.7 -98 110 C-97.01 110 -96.02 110 -95 110 C-94.34 108.02 -93.68 106.04 -93 104 C-92.34 104 -91.68 104 -91 104 C-90.71125 103.401875 -90.4225 102.80375 -90.125 102.1875 C-89 100 -89 100 -87 97 C-86.34 97 -85.68 97 -85 97 C-84.690625 96.38125 -84.38125 95.7625 -84.0625 95.125 C-83.375 93.75 -82.6875 92.375 -82 91 C-81.34 91 -80.68 91 -80 91 C-79.505 89.515 -79.505 89.515 -79 88 C-78.34 88 -77.68 88 -77 88 C-76.505 86.515 -76.505 86.515 -76 85 C-75.01 84.67 -74.02 84.34 -73 84 C-71.42064294 82.19542268 -69.90677075 80.33278666 -68.4375 78.4375 C-67.00349158 76.5890655 -65.5337368 74.76656212 -64 73 C-63.34 73 -62.68 73 -62 73 C-61.731875 72.278125 -61.46375 71.55625 -61.1875 70.8125 C-60.00098638 68.00233617 -58.72514361 65.51583443 -57 63 C-56.34 63 -55.68 63 -55 63 C-54.71125 62.401875 -54.4225 61.80375 -54.125 61.1875 C-51.55172414 56.18390805 -51.55172414 56.18390805 -48 55 C-47.30341637 53.34561387 -46.63903117 51.67745682 -46 50 C-44.5 48.1875 -44.5 48.1875 -43 47 C-42.34 47 -41.68 47 -41 47 C-40.67 46.01 -40.34 45.02 -40 44 C-39.34 44 -38.68 44 -38 44 C-37.73445313 43.41476563 -37.46890625 42.82953125 -37.1953125 42.2265625 C-35.96522307 39.93521945 -34.62693945 38.28991056 -32.875 36.375 C-29.27276242 32.3725138 -25.97441814 28.17880874 -22.69921875 23.90625 C-22.13847656 23.2771875 -21.57773437 22.648125 -21 22 C-20.34 22 -19.68 22 -19 22 C-18.505 20.515 -18.505 20.515 -18 19 C-17.34 19 -16.68 19 -16 19 C-15.73832031 18.42121094 -15.47664062 17.84242187 -15.20703125 17.24609375 C-12.10789615 11.47909478 -6.81624857 6.40342726 -2 2 C-1.34 2 -0.68 2 0 2 C0 1.34 0 0.68 0 0 Z " fill="#DCDCDC" transform="translate(441,34)"/>
<path d="M0 0 C0.99 0 1.98 0 3 0 C3.495 2.475 3.495 2.475 4 5 C3.4121875 5.07605469 2.824375 5.15210938 2.21875 5.23046875 C-0.75434355 6.26162972 -1.6753259 7.77869119 -3.5 10.3125 C-5.81041919 13.48932638 -8.19756125 16.24903461 -11 19 C-11.70125 19.9075 -12.4025 20.815 -13.125 21.75 C-13.74375 22.4925 -14.3625 23.235 -15 24 C-15.66 24 -16.32 24 -17 24 C-17.495 25.485 -17.495 25.485 -18 27 C-18.66 27 -19.32 27 -20 27 C-20.33 28.32 -20.66 29.64 -21 31 C-21.66 31 -22.32 31 -23 31 C-23.28875 31.598125 -23.5775 32.19625 -23.875 32.8125 C-25 35 -25 35 -27 38 C-27.66 38 -28.32 38 -29 38 C-29.4640625 38.928125 -29.4640625 38.928125 -29.9375 39.875 C-30.625 41.25 -31.3125 42.625 -32 44 C-32.66 44 -33.32 44 -34 44 C-34.23589844 44.55429687 -34.47179687 45.10859375 -34.71484375 45.6796875 C-36.3126455 48.56447242 -38.31851009 50.71172032 -40.5625 53.125 C-43.63719186 56.31507509 -43.63719186 56.31507509 -46 60 C-46.66 60 -47.32 60 -48 60 C-48.4640625 60.928125 -48.4640625 60.928125 -48.9375 61.875 C-49.625 63.25 -50.3125 64.625 -51 66 C-51.66 66 -52.32 66 -53 66 C-53.495 67.485 -53.495 67.485 -54 69 C-54.66 69 -55.32 69 -56 69 C-56.23589844 69.55429687 -56.47179687 70.10859375 -56.71484375 70.6796875 C-58.3126455 73.56447242 -60.31851009 75.71172032 -62.5625 78.125 C-65.63719186 81.31507509 -65.63719186 81.31507509 -68 85 C-68.66 85 -69.32 85 -70 85 C-70.495 86.485 -70.495 86.485 -71 88 C-71.66 88 -72.32 88 -73 88 C-73 88.99 -73 89.98 -73 91 C-73.66 91 -74.32 91 -75 91 C-75.226875 91.53625 -75.45375 92.0725 -75.6875 92.625 C-78.02231629 96.84990566 -81.32375317 100.84893129 -85 104 C-85.66 104 -86.32 104 -87 104 C-87.37125 104.8353125 -87.37125 104.8353125 -87.75 105.6875 C-89.22924818 108.42410913 -90.93467439 110.67650869 -93 113 C-93.66 113 -94.32 113 -95 113 C-95.33 113.99 -95.66 114.98 -96 116 C-96.66 116 -97.32 116 -98 116 C-98.2475 116.721875 -98.495 117.44375 -98.75 118.1875 C-100.55743441 122.25422741 -102.83499897 125.11092027 -106.375 127.8125 C-109.41947877 130.34956564 -111.42456581 133.1468656 -113.66796875 136.390625 C-114.32732422 137.18726563 -114.32732422 137.18726563 -115 138 C-115.66 138 -116.32 138 -117 138 C-117 138.66 -117 139.32 -117 140 C-117.99 140 -118.98 140 -120 140 C-120 139.34 -120 138.68 -120 138 C-119.34 138 -118.68 138 -118 138 C-117.67 137.01 -117.34 136.02 -117 135 C-116.34 135 -115.68 135 -115 135 C-114.67 134.01 -114.34 133.02 -114 132 C-113.34 132 -112.68 132 -112 132 C-112 131.01 -112 130.02 -112 129 C-111.34 129 -110.68 129 -110 129 C-109.34 127.35 -108.68 125.7 -108 124 C-107.34 124 -106.68 124 -106 124 C-105.71125 123.4225 -105.4225 122.845 -105.125 122.25 C-104.08333333 120.16666667 -103.04166667 118.08333333 -102 116 C-101.34 116 -100.68 116 -100 116 C-99.7525 115.46375 -99.505 114.9275 -99.25 114.375 C-97.07524012 110.24295623 -94.65510252 105.99053842 -91 103 C-90.34 103 -89.68 103 -89 103 C-88.505 101.515 -88.505 101.515 -88 100 C-87.34 100 -86.68 100 -86 100 C-85.62875 99.1646875 -85.62875 99.1646875 -85.25 98.3125 C-83.77075182 95.57589087 -82.06532561 93.32349131 -80 91 C-79.34 91 -78.68 91 -78 91 C-77.7421875 90.43796875 -77.484375 89.8759375 -77.21875 89.296875 C-75.85830223 86.73295421 -74.27211038 84.54773635 -72.5 82.25 C-71.8915625 81.45078125 -71.283125 80.6515625 -70.65625 79.828125 C-70.1096875 79.22484375 -69.563125 78.6215625 -69 78 C-68.34 78 -67.68 78 -67 78 C-66.505 76.515 -66.505 76.515 -66 75 C-65.34 75 -64.68 75 -64 75 C-63.73960937 74.43539062 -63.47921875 73.87078125 -63.2109375 73.2890625 C-61.88249571 70.77787898 -60.35205325 68.62997345 -58.625 66.375 C-58.03976563 65.59898437 -57.45453125 64.82296875 -56.8515625 64.0234375 C-54.97895456 61.97700097 -53.47908337 61.14987271 -51 60 C-50.505 59.01 -50.505 59.01 -50 58 C-49.34 58 -48.68 58 -48 58 C-47.731875 57.401875 -47.46375 56.80375 -47.1875 56.1875 C-46 54 -46 54 -44.5625 52.625 C-42.80337788 50.96143432 -42.80337788 50.96143432 -41.625 48.1875 C-39.76623112 44.54145335 -37.78053123 41.99441824 -35 39 C-34.34 39 -33.68 39 -33 39 C-33 38.34 -33 37.68 -33 37 C-31.1875 34.875 -31.1875 34.875 -29 33 C-28.01 33 -27.02 33 -26 33 C-25.34 31.02 -24.68 29.04 -24 27 C-23.34 27 -22.68 27 -22 27 C-21.7421875 26.43796875 -21.484375 25.8759375 -21.21875 25.296875 C-19.85830223 22.73295421 -18.27211038 20.54773635 -16.5 18.25 C-15.8915625 17.45078125 -15.283125 16.6515625 -14.65625 15.828125 C-14.1096875 15.22484375 -13.563125 14.6215625 -13 14 C-12.34 14 -11.68 14 -11 14 C-10.67 13.01 -10.34 12.02 -10 11 C-9.34 11 -8.68 11 -8 11 C-7.67 10.01 -7.34 9.02 -7 8 C-6.01 8 -5.02 8 -4 8 C-3.34 6.02 -2.68 4.04 -2 2 C-1.34 2 -0.68 2 0 2 C0 1.34 0 0.68 0 0 Z " fill="#C9C9C9" transform="translate(225,289)"/>
<path d="M0 0 C4.11197892 1.37065964 5.7377322 4.18314842 8.1875 7.5625 C8.65091797 8.15869141 9.11433594 8.75488281 9.59179688 9.36914062 C10.02943359 9.97048828 10.46707031 10.57183594 10.91796875 11.19140625 C11.31781982 11.72967041 11.7176709 12.26793457 12.12963867 12.82250977 C13 15 13 15 13 23 C-31.88 23 -76.76 23 -123 23 C-123 22.34 -123 21.68 -123 21 C-123.66 21 -124.32 21 -125 21 C-128 17.53846154 -128 17.53846154 -128 15 C-127.01 15.33 -126.02 15.66 -125 16 C-125 16.66 -125 17.32 -125 18 C-124.34 18 -123.68 18 -123 18 C-123 18.66 -123 19.32 -123 20 C-56.67 19.505 -56.67 19.505 11 19 C10.01 17.02 10.01 17.02 9 15 C9 14.01 9 13.02 9 12 C8.01 11.67 7.02 11.34 6 11 C6 10.01 6 9.02 6 8 C5.34 8 4.68 8 4 8 C4 7.34 4 6.68 4 6 C3.01 5.67 2.02 5.34 1 5 C0.67 3.35 0.34 1.7 0 0 Z " fill="#575757" transform="translate(454,406)"/>
<path d="M0 0 C0.495 1.98 0.495 1.98 1 4 C0.01 4.33 -0.98 4.66 -2 5 C-2.33 5.99 -2.66 6.98 -3 8 C-3.66 8 -4.32 8 -5 8 C-4.80277344 9.01707031 -4.80277344 9.01707031 -4.6015625 10.0546875 C-5.22267352 14.64603757 -8.18867682 16.92886646 -11.375 20.125 C-12.65811873 21.45388019 -13.94066639 22.783312 -15.22265625 24.11328125 C-15.86090332 24.7676416 -16.49915039 25.42200195 -17.15673828 26.09619141 C-19.76280732 28.78786377 -22.29061298 31.54171847 -24.8125 34.3125 C-25.60269531 35.17488281 -26.39289063 36.03726563 -27.20703125 36.92578125 C-29.03935714 38.87322982 -29.03935714 38.87322982 -30 41 C-30.66 41 -31.32 41 -32 41 C-32.33 41.99 -32.66 42.98 -33 44 C-33.66 44 -34.32 44 -35 44 C-35.26039063 44.5671875 -35.52078125 45.134375 -35.7890625 45.71875 C-37.10868364 48.20474595 -38.63872009 50.28605357 -40.375 52.5 C-40.96023438 53.2528125 -41.54546875 54.005625 -42.1484375 54.78125 C-43.99985821 56.9998301 -45.85720542 59.06002137 -48 61 C-48.66 61 -49.32 61 -50 61 C-50.268125 61.763125 -50.53625 62.52625 -50.8125 63.3125 C-51.95134505 65.88988618 -52.81416671 67.26954864 -55 69 C-55.66 69 -56.32 69 -57 69 C-57.33 69.99 -57.66 70.98 -58 72 C-58.66 72 -59.32 72 -60 72 C-60.33 73.32 -60.66 74.64 -61 76 C-61.66 76 -62.32 76 -63 76 C-64.83695434 80.33927969 -64.83695434 80.33927969 -64.125 84.875 C-63.568125 85.926875 -63.568125 85.926875 -63 87 C-63.99 86.67 -64.98 86.34 -66 86 C-66 85.34 -66 84.68 -66 84 C-66.99 83.67 -67.98 83.34 -69 83 C-68.54961229 78.15833214 -67.40027839 75.50331713 -64 72 C-63.34 72 -62.68 72 -62 72 C-61.5978125 71.0409375 -61.5978125 71.0409375 -61.1875 70.0625 C-60 68 -60 68 -57 67 C-56.71125 66.2575 -56.4225 65.515 -56.125 64.75 C-54.70662223 61.28285434 -52.70563987 59.58265624 -50 57 C-48.45185976 55.13678599 -46.93008501 53.25732397 -45.4296875 51.35546875 C-44 50 -44 50 -41 50 C-40.7525 49.05125 -40.505 48.1025 -40.25 47.125 C-38.80880619 43.52201547 -38.2896662 43.54203103 -35 42 C-34.690625 41.21625 -34.38125 40.4325 -34.0625 39.625 C-32.71784631 36.30291441 -30.8310236 35.1232677 -28 33 C-27.34 32.01 -26.68 31.02 -26 30 C-25.34 30 -24.68 30 -24 30 C-23.34 28.35 -22.68 26.7 -22 25 C-21.01 25 -20.02 25 -19 25 C-18.34 23.02 -17.68 21.04 -17 19 C-16.34 19 -15.68 19 -15 19 C-14.566875 18.1028125 -14.566875 18.1028125 -14.125 17.1875 C-13 15 -13 15 -11 12 C-10.34 12 -9.68 12 -9 12 C-8.690625 11.38125 -8.38125 10.7625 -8.0625 10.125 C-7.375 8.75 -6.6875 7.375 -6 6 C-5.34 6 -4.68 6 -4 6 C-3.67 5.01 -3.34 4.02 -3 3 C-2.34 3 -1.68 3 -1 3 C-0.67 2.01 -0.34 1.02 0 0 Z " fill="#D9D9D9" transform="translate(365,119)"/>
<path d="M0 0 C0.495 0.99 0.495 0.99 1 2 C0.67 2.66 0.34 3.32 0 4 C-0.66 4 -1.32 4 -2 4 C-2 4.99 -2 5.98 -2 7 C-3.62935241 8.37868281 -5.29749607 9.71274093 -7 11 C-7.33 11.66 -7.66 12.32 -8 13 C-8.66 13 -9.32 13 -10 13 C-10 13.99 -10 14.98 -10 16 C-43.66 15.505 -43.66 15.505 -78 15 C-76.9957244 9.97862202 -76.60239038 9.13756581 -73 6 C-72.67 6.66 -72.34 7.32 -72 8 C-72.99 9.485 -72.99 9.485 -74 11 C-52.55 11.33 -31.1 11.66 -9 12 C-8.34 10.68 -7.68 9.36 -7 8 C-5 5.25 -5 5.25 -3 3 C-2.34 3 -1.68 3 -1 3 C-0.67 2.01 -0.34 1.02 0 0 Z " fill="#5B5B5B" transform="translate(115,414)"/>
<path d="M0 0 C-0.71027344 0.77085938 -1.42054688 1.54171875 -2.15234375 2.3359375 C-3.0808471 3.34885024 -4.00922606 4.36187701 -4.9375 5.375 C-5.40607422 5.88289063 -5.87464844 6.39078125 -6.35742188 6.9140625 C-8.97726768 9.74265854 -8.97726768 9.74265854 -11 13 C-11.66 13 -12.32 13 -13 13 C-13.2475 13.556875 -13.495 14.11375 -13.75 14.6875 C-15.22924818 17.42410913 -16.93467439 19.67650869 -19 22 C-19.66 22 -20.32 22 -21 22 C-21.33 22.99 -21.66 23.98 -22 25 C-22.66 25 -23.32 25 -24 25 C-24.268125 25.5775 -24.53625 26.155 -24.8125 26.75 C-26.02929189 29.05550043 -27.30333879 31.02056192 -29 33 C-29.66 33 -30.32 33 -31 33 C-31 33.66 -31 34.32 -31 35 C-31.66 35 -32.32 35 -33 35 C-33.309375 35.61875 -33.61875 36.2375 -33.9375 36.875 C-34.625 38.25 -35.3125 39.625 -36 41 C-36.66 41 -37.32 41 -38 41 C-38.33 41.99 -38.66 42.98 -39 44 C-39.66 44 -40.32 44 -41 44 C-41.33 44.99 -41.66 45.98 -42 47 C-42.66 47 -43.32 47 -44 47 C-44 46.01 -44 45.02 -44 44 C-43.195625 43.360625 -42.39125 42.72125 -41.5625 42.0625 C-38.69347454 39.75328438 -38.80668456 39.3275738 -38 36 C-36.38025441 34.28769752 -34.7041054 32.62836738 -33 31 C-31.41773384 29.1385104 -29.86756448 27.25564047 -28.33203125 25.35546875 C-27.89246094 24.90816406 -27.45289063 24.46085937 -27 24 C-26.34 24 -25.68 24 -25 24 C-24.731875 23.278125 -24.46375 22.55625 -24.1875 21.8125 C-23.00098638 19.00233617 -21.72514361 16.51583443 -20 14 C-19.34 14 -18.68 14 -18 14 C-17.566875 13.1028125 -17.566875 13.1028125 -17.125 12.1875 C-14.55172414 7.18390805 -14.55172414 7.18390805 -11 6 C-10.67 5.34 -10.34 4.68 -10 4 C-9.34 4 -8.68 4 -8 4 C-8 3.34 -8 2.68 -8 2 C-3.61016949 -1.20338983 -3.61016949 -1.20338983 0 0 Z " fill="#F1F1F1" transform="translate(404,83)"/>
<path d="M0 0 C0.99 0 1.98 0 3 0 C3.495 2.475 3.495 2.475 4 5 C3.4121875 5.07605469 2.824375 5.15210938 2.21875 5.23046875 C-0.75434355 6.26162972 -1.6753259 7.77869119 -3.5 10.3125 C-5.81041919 13.48932638 -8.19756125 16.24903461 -11 19 C-11.70125 19.9075 -12.4025 20.815 -13.125 21.75 C-13.74375 22.4925 -14.3625 23.235 -15 24 C-15.66 24 -16.32 24 -17 24 C-17.33 24.99 -17.66 25.98 -18 27 C-18.66 27 -19.32 27 -20 27 C-20.33 28.32 -20.66 29.64 -21 31 C-21.66 31 -22.32 31 -23 31 C-23.433125 31.8971875 -23.433125 31.8971875 -23.875 32.8125 C-25 35 -25 35 -27 38 C-29.625 38.1875 -29.625 38.1875 -32 38 C-32 38.66 -32 39.32 -32 40 C-32.66 40 -33.32 40 -34 40 C-34.33 41.32 -34.66 42.64 -35 44 C-35.66 44 -36.32 44 -37 44 C-37 44.66 -37 45.32 -37 46 C-38.5 47.625 -38.5 47.625 -40 49 C-40.66 48.67 -41.32 48.34 -42 48 C-40.88266271 46.49428343 -39.75589965 44.99555708 -38.625 43.5 C-37.68527344 42.24703125 -37.68527344 42.24703125 -36.7265625 40.96875 C-35.87191406 39.99421875 -35.87191406 39.99421875 -35 39 C-34.34 39 -33.68 39 -33 39 C-33 38.34 -33 37.68 -33 37 C-31.1875 34.875 -31.1875 34.875 -29 33 C-28.01 33 -27.02 33 -26 33 C-25.34 31.02 -24.68 29.04 -24 27 C-23.34 27 -22.68 27 -22 27 C-21.7421875 26.43796875 -21.484375 25.8759375 -21.21875 25.296875 C-19.85830223 22.73295421 -18.27211038 20.54773635 -16.5 18.25 C-15.8915625 17.45078125 -15.283125 16.6515625 -14.65625 15.828125 C-14.1096875 15.22484375 -13.563125 14.6215625 -13 14 C-12.34 14 -11.68 14 -11 14 C-10.67 13.01 -10.34 12.02 -10 11 C-9.34 11 -8.68 11 -8 11 C-7.67 10.01 -7.34 9.02 -7 8 C-6.01 8 -5.02 8 -4 8 C-3.34 6.02 -2.68 4.04 -2 2 C-1.34 2 -0.68 2 0 2 C0 1.34 0 0.68 0 0 Z " fill="#BFBFBF" transform="translate(225,289)"/>
<path d="M0 0 C4.14156052 1.38052017 5.74495917 4.26933658 8.1875 7.6875 C8.65091797 8.30044922 9.11433594 8.91339844 9.59179688 9.54492188 C10.02943359 10.15271484 10.46707031 10.76050781 10.91796875 11.38671875 C11.31781982 11.93545654 11.7176709 12.48419434 12.12963867 13.04956055 C13 15 13 15 13 21 C-25.94 21 -64.88 21 -105 21 C-105 20.67 -105 20.34 -105 20 C-66.72 19.67 -28.44 19.34 11 19 C10.01 17.02 10.01 17.02 9 15 C9 14.01 9 13.02 9 12 C8.01 11.67 7.02 11.34 6 11 C6 10.01 6 9.02 6 8 C5.34 8 4.68 8 4 8 C4 7.34 4 6.68 4 6 C3.01 5.67 2.02 5.34 1 5 C0.505 2.525 0.505 2.525 0 0 Z " fill="#252525" transform="translate(454,406)"/>
<path d="M0 0 C0.99 0 1.98 0 3 0 C2.67 1.65 2.34 3.3 2 5 C1.34 5 0.68 5 0 5 C-0.2475 5.556875 -0.495 6.11375 -0.75 6.6875 C-2.84162704 10.55701002 -5.66305466 14.11809266 -9 17 C-9.66 17 -10.32 17 -11 17 C-11.433125 17.8971875 -11.433125 17.8971875 -11.875 18.8125 C-13 21 -13 21 -15 24 C-16.65391846 24.39171753 -18.32345271 24.72057545 -20 25 C-22.23408113 25.99083967 -22.23408113 25.99083967 -24 27 C-22.625 24.5 -22.625 24.5 -21 22 C-20.34 22 -19.68 22 -19 22 C-18.67 21.01 -18.34 20.02 -18 19 C-17.34 19 -16.68 19 -16 19 C-15.73832031 18.42121094 -15.47664063 17.84242187 -15.20703125 17.24609375 C-12.10789615 11.47909478 -6.81624857 6.40342726 -2 2 C-1.34 2 -0.68 2 0 2 C0 1.34 0 0.68 0 0 Z " fill="#F0F0F0" transform="translate(441,34)"/>
<path d="M0 0 C0.99 0 1.98 0 3 0 C1.5 3 1.5 3 0 6 C-0.66 6 -1.32 6 -2 6 C-2.23589844 6.55429687 -2.47179687 7.10859375 -2.71484375 7.6796875 C-4.3126455 10.56447242 -6.31851009 12.71172032 -8.5625 15.125 C-11.63719186 18.31507509 -11.63719186 18.31507509 -14 22 C-14.66 22 -15.32 22 -16 22 C-16.309375 22.61875 -16.61875 23.2375 -16.9375 23.875 C-17.625 25.25 -18.3125 26.625 -19 28 C-19.66 28 -20.32 28 -21 28 C-21.33 28.99 -21.66 29.98 -22 31 C-22.66 31 -23.32 31 -24 31 C-24.28875 31.639375 -24.5775 32.27875 -24.875 32.9375 C-26 35 -26 35 -28 36 C-27.22123943 30.54867599 -25.04085908 26.70412082 -21 23 C-20.484375 22.443125 -19.96875 21.88625 -19.4375 21.3125 C-18 20 -18 20 -16 20 C-15.7525 19.443125 -15.505 18.88625 -15.25 18.3125 C-13.77075182 15.57589087 -12.06532561 13.32349131 -10 11 C-9.34 11 -8.68 11 -8 11 C-7.67 10.01 -7.34 9.02 -7 8 C-6.34 8 -5.68 8 -5 8 C-5 7.34 -5 6.68 -5 6 C-4.34 5.67 -3.68 5.34 -3 5 C-2.67 4.01 -2.34 3.02 -2 2 C-1.34 2 -0.68 2 0 2 C0 1.34 0 0.68 0 0 Z " fill="#D7D7D7" transform="translate(193,327)"/>
<path d="M0 0 C13.2 0 26.4 0 40 0 C40 0.66 40 1.32 40 2 C41.32 2.33 42.64 2.66 44 3 C44.495 4.98 44.495 4.98 45 7 C45.66 7 46.32 7 47 7 C47.495 8.98 47.495 8.98 48 11 C48.66 11 49.32 11 50 11 C50.495 13.475 50.495 13.475 51 16 C50.34 16 49.68 16 49 16 C47.3981038 14.05127123 45.90663524 12.10722061 44.4375 10.0625 C41.89247678 6.38299103 41.89247678 6.38299103 39 3 C36.47905924 2.91152257 33.98569107 2.88472699 31.46484375 2.90234375 C30.71159317 2.9037587 29.95834259 2.90517365 29.18226624 2.90663147 C26.7673044 2.91224624 24.35243399 2.92480117 21.9375 2.9375 C20.30403779 2.9425131 18.67057414 2.94707634 17.03710938 2.95117188 C13.02470415 2.96222046 9.01236759 2.97949494 5 3 C5 3.66 5 4.32 5 5 C4.01 4.67 3.02 4.34 2 4 C2 3.01 2 2.02 2 1 C1.34 0.67 0.68 0.34 0 0 Z " fill="#BCBCBC" transform="translate(108,69)"/>
<path d="M0 0 C0 0.99 0 1.98 0 3 C-0.66 3.66 -1.32 4.32 -2 5 C-2.103125 5.928125 -2.20625 6.85625 -2.3125 7.8125 C-3.19130634 11.88696577 -4.95134509 13.24169318 -8 16 C-8.556875 16.763125 -9.11375 17.52625 -9.6875 18.3125 C-10.120625 18.869375 -10.55375 19.42625 -11 20 C-11.66 20 -12.32 20 -13 20 C-13.33 20.99 -13.66 21.98 -14 23 C-14.66 23 -15.32 23 -16 23 C-16 23.99 -16 24.98 -16 26 C-16.99 26 -17.98 26 -19 26 C-20.56249809 27.31201173 -20.56249809 27.31201173 -22 29 C-23 30 -24 31 -25 32 C-25.66 31.67 -26.32 31.34 -27 31 C-25.71937515 29.2925002 -24.38232443 27.62626404 -23 26 C-22.34 26 -21.68 26 -21 26 C-20.7421875 25.43796875 -20.484375 24.8759375 -20.21875 24.296875 C-18.85830223 21.73295421 -17.27211038 19.54773635 -15.5 17.25 C-14.8915625 16.45078125 -14.283125 15.6515625 -13.65625 14.828125 C-13.1096875 14.22484375 -12.563125 13.6215625 -12 13 C-11.34 13 -10.68 13 -10 13 C-9.67 12.01 -9.34 11.02 -9 10 C-8.34 10 -7.68 10 -7 10 C-6.773125 9.46375 -6.54625 8.9275 -6.3125 8.375 C-4.56617944 5.21499137 -2.3597151 2.7323017 0 0 Z " fill="#A7A7A7" transform="translate(168,354)"/>
<path d="M0 0 C0.495 0.99 0.495 0.99 1 2 C0.67 2.66 0.34 3.32 0 4 C-0.66 4 -1.32 4 -2 4 C-2 4.99 -2 5.98 -2 7 C-3.62935241 8.37868281 -5.29749607 9.71274093 -7 11 C-7.33 11.66 -7.66 12.32 -8 13 C-30.44 13 -52.88 13 -76 13 C-76 9 -76 9 -74.5 7.25 C-73.7575 6.63125 -73.7575 6.63125 -73 6 C-72.67 6.66 -72.34 7.32 -72 8 C-72.99 9.485 -72.99 9.485 -74 11 C-52.55 11.33 -31.1 11.66 -9 12 C-8.34 10.68 -7.68 9.36 -7 8 C-5 5.25 -5 5.25 -3 3 C-2.34 3 -1.68 3 -1 3 C-0.67 2.01 -0.34 1.02 0 0 Z " fill="#434343" transform="translate(115,414)"/>
<path d="M0 0 C0.99 0.33 1.98 0.66 3 1 C3 1.66 3 2.32 3 3 C4.32 3.33 5.64 3.66 7 4 C7 4.66 7 5.32 7 6 C7.66 6 8.32 6 9 6 C10.4606285 8.64738916 11 9.89448334 11 13 C12.32 13.33 13.64 13.66 15 14 C15.33 15.32 15.66 16.64 16 18 C16.66 18 17.32 18 18 18 C18.66 20.31 19.32 22.62 20 25 C20.66 25 21.32 25 22 25 C22 25.99 22 26.98 22 28 C21.34 28 20.68 28 20 28 C19.67 26.68 19.34 25.36 19 24 C18.34 24 17.68 24 17 24 C15.4921875 22.3203125 15.4921875 22.3203125 13.875 20.125 C13.33617187 19.40570313 12.79734375 18.68640625 12.2421875 17.9453125 C11 16 11 16 11 14 C10.34 14 9.68 14 9 14 C7.21694476 11.36107824 6.00940379 9.02821137 5 6 C4.34 6 3.68 6 3 6 C0 2.53846154 0 2.53846154 0 0 Z " fill="#898989" transform="translate(262,338)"/>
<path d="M0 0 C0.66 0 1.32 0 2 0 C2 0.66 2 1.32 2 2 C1.3503125 2.61875 1.3503125 2.61875 0.6875 3.25 C-1.53321447 5.55296316 -2.65526461 8.11842417 -4 11 C-4.66 11 -5.32 11 -6 11 C-6.33 12.32 -6.66 13.64 -7 15 C-7.66 15 -8.32 15 -9 15 C-10.83695434 19.33927969 -10.83695434 19.33927969 -10.125 23.875 C-9.75375 24.57625 -9.3825 25.2775 -9 26 C-9.99 25.67 -10.98 25.34 -12 25 C-12 24.34 -12 23.68 -12 23 C-12.99 22.67 -13.98 22.34 -15 22 C-14.54961229 17.15833214 -13.40027839 14.50331713 -10 11 C-9.34 11 -8.68 11 -8 11 C-7.731875 10.360625 -7.46375 9.72125 -7.1875 9.0625 C-6 7 -6 7 -3 6 C-1.84478498 3.52869082 -1.84478498 3.52869082 -1 1 C-0.67 0.67 -0.34 0.34 0 0 Z " fill="#8C8C8C" transform="translate(311,180)"/>
<path d="M0 0 C0.66 0 1.32 0 2 0 C6 5.41176471 6 5.41176471 6 8 C6.66 8 7.32 8 8 8 C8.33 9.32 8.66 10.64 9 12 C9.66 12 10.32 12 11 12 C12.44526736 13.73548169 13.8087222 15.53975963 15.125 17.375 C15.84945313 18.37273437 16.57390625 19.37046875 17.3203125 20.3984375 C19 23 19 23 19 25 C18.34 25 17.68 25 17 25 C17 24.34 17 23.68 17 23 C16.360625 22.7525 15.72125 22.505 15.0625 22.25 C13 21 13 21 12.4375 18.9375 C12.2209375 17.9784375 12.2209375 17.9784375 12 17 C11.01 16.67 10.02 16.34 9 16 C4.93127069 11.61829151 0 6.20682025 0 0 Z " fill="#808080" transform="translate(435,381)"/>
<path d="M0 0 C0.99 0.33 1.98 0.66 3 1 C3 1.66 3 2.32 3 3 C3.66 3 4.32 3 5 3 C5 3.66 5 4.32 5 5 C6.32 5 7.64 5 9 5 C9.33 6.65 9.66 8.3 10 10 C10.66 10 11.32 10 12 10 C12.66 12.31 13.32 14.62 14 17 C14.66 17 15.32 17 16 17 C16.33 18.65 16.66 20.3 17 22 C17.66 22 18.32 22 19 22 C19 22.99 19 23.98 19 25 C18.34 25 17.68 25 17 25 C15.4921875 23.1015625 15.4921875 23.1015625 13.875 20.625 C13.33617187 19.81289063 12.79734375 19.00078125 12.2421875 18.1640625 C11 16 11 16 11 14 C10.01 13.67 9.02 13.34 8 13 C5.95703125 10.56640625 5.95703125 10.56640625 3.8125 7.5625 C3.09707031 6.57378906 2.38164062 5.58507812 1.64453125 4.56640625 C0 2 0 2 0 0 Z " fill="#878787" transform="translate(237,305)"/>
<path d="M0 0 C1.32 0.33 2.64 0.66 4 1 C4 1.66 4 2.32 4 3 C4.66 3 5.32 3 6 3 C6.33 4.32 6.66 5.64 7 7 C7.66 7 8.32 7 9 7 C13 12.41176471 13 12.41176471 13 15 C13.66 15 14.32 15 15 15 C15.33 16.65 15.66 18.3 16 20 C16.66 20 17.32 20 18 20 C18.33 21.65 18.66 23.3 19 25 C13.19794344 19.35475578 13.19794344 19.35475578 11 16 C11 15.34 11 14.68 11 14 C10.01 13.67 9.02 13.34 8 13 C5.95703125 10.56640625 5.95703125 10.56640625 3.8125 7.5625 C3.09707031 6.57378906 2.38164063 5.58507813 1.64453125 4.56640625 C0 2 0 2 0 0 Z " fill="#5B5B5B" transform="translate(43,52)"/>
<path d="M0 0 C0.99 0.33 1.98 0.66 3 1 C3 1.66 3 2.32 3 3 C3.66 3 4.32 3 5 3 C5 3.99 5 4.98 5 6 C5.66 6 6.32 6 7 6 C11 11.41176471 11 11.41176471 11 14 C11.99 14.33 12.98 14.66 14 15 C17 19.33333333 17 19.33333333 17 22 C16.01 21.67 15.02 21.34 14 21 C14 20.34 14 19.68 14 19 C13.01 18.67 12.02 18.34 11 18 C11 17.34 11 16.68 11 16 C10.01 15.67 9.02 15.34 8 15 C6.35179805 12.39757586 6 11.13751221 6 8 C5.01 7.67 4.02 7.34 3 7 C3 6.34 3 5.68 3 5 C2.01 4.67 1.02 4.34 0 4 C0 2.68 0 1.36 0 0 Z " fill="#969696" transform="translate(227,223)"/>
<path d="M0 0 C1.32 0.33 2.64 0.66 4 1 C4.33 2.65 4.66 4.3 5 6 C6.32 6.33 7.64 6.66 9 7 C9.33 8.65 9.66 10.3 10 12 C11.32 12.33 12.64 12.66 14 13 C14.66 15.31 15.32 17.62 16 20 C16.66 20 17.32 20 18 20 C18.33 21.65 18.66 23.3 19 25 C14.125 20.375 14.125 20.375 13 17 C12.34 17 11.68 17 11 17 C10.67 15.68 10.34 14.36 10 13 C9.34 13 8.68 13 8 13 C6.4921875 11.35546875 6.4921875 11.35546875 4.875 9.1875 C4.06675781 8.12595703 4.06675781 8.12595703 3.2421875 7.04296875 C2 5 2 5 2 2 C1.34 2 0.68 2 0 2 C0 1.34 0 0.68 0 0 Z " fill="#7D7D7D" transform="translate(285,252)"/>
<path d="M0 0 C3.57011576 0.60571203 3.95995676 0.95097269 6.4375 3.984375 C7.30281922 5.23192111 8.15663528 6.48750857 9 7.75 C9.85285758 8.99568894 10.70700505 10.24049584 11.5625 11.484375 C11.96984375 12.08314453 12.3771875 12.68191406 12.796875 13.29882812 C13.90043787 14.85922303 15.10270149 16.34857412 16.3125 17.828125 C18 20 18 20 18 22 C16 22 16 22 14.375 20.6875 C13 19 13 19 13 16 C11.7934375 15.690625 11.7934375 15.690625 10.5625 15.375 C9.716875 14.92125 8.87125 14.4675 8 14 C7.1875 10.875 7.1875 10.875 7 8 C6.401875 7.896875 5.80375 7.79375 5.1875 7.6875 C2.63994217 6.88683897 1.58475902 6.13942468 0 4 C0 2.68 0 1.36 0 0 Z " fill="#7D7D7D" transform="translate(170,34)"/>
<path d="M0 0 C0.66 0 1.32 0 2 0 C0.67910846 2.86822163 -0.79458064 5.12853752 -2.875 7.5 C-3.67164062 8.40878906 -3.67164062 8.40878906 -4.484375 9.3359375 C-6.26186901 11.28751598 -8.13367242 13.13367242 -10 15 C-10.70125 15.9075 -11.4025 16.815 -12.125 17.75 C-13.053125 18.86375 -13.053125 18.86375 -14 20 C-14.66 20 -15.32 20 -16 20 C-16 20.66 -16 21.32 -16 22 C-16.99 22 -17.98 22 -19 22 C-19 21.34 -19 20.68 -19 20 C-18.34 20 -17.68 20 -17 20 C-16.67 19.01 -16.34 18.02 -16 17 C-15.34 17 -14.68 17 -14 17 C-13.67 16.01 -13.34 15.02 -13 14 C-12.34 14 -11.68 14 -11 14 C-11 13.01 -11 12.02 -11 11 C-10.34 11 -9.68 11 -9 11 C-8.34 9.35 -7.68 7.7 -7 6 C-6.34 6 -5.68 6 -5 6 C-4.67 5.01 -4.34 4.02 -4 3 C-3.01 3 -2.02 3 -1 3 C-0.67 2.01 -0.34 1.02 0 0 Z " fill="#EFEFEF" transform="translate(124,407)"/>
<path d="M0 0 C3.26798494 3.17720758 6.21443561 6.39515196 9 10 C9.59554688 10.74121094 10.19109375 11.48242188 10.8046875 12.24609375 C11.44664062 13.05175781 12.08859375 13.85742188 12.75 14.6875 C13.36359375 15.45449219 13.9771875 16.22148437 14.609375 17.01171875 C16 19 16 19 16 21 C13.625 20.75 13.625 20.75 11 20 C9.2058242 17.43689172 9 16.16880694 9 13 C7.7934375 12.690625 7.7934375 12.690625 6.5625 12.375 C5.716875 11.92125 4.87125 11.4675 4 11 C3.1875 7.875 3.1875 7.875 3 5 C2.34 5 1.68 5 1 5 C0.67 3.35 0.34 1.7 0 0 Z " fill="#979797" transform="translate(335,249)"/>
<path d="M0 0 C1.7074998 1.28062485 3.37373596 2.61767557 5 4 C5 4.66 5 5.32 5 6 C15.89 6 26.78 6 38 6 C38 5.34 38 4.68 38 4 C38.66 4 39.32 4 40 4 C40 4.99 40 5.98 40 7 C27.13 7 14.26 7 1 7 C0.67 4.69 0.34 2.38 0 0 Z " fill="#545454" transform="translate(349,381)"/>
<path d="M0 0 C2.875 0.5625 2.875 0.5625 6 2 C7.375 5.625 7.375 5.625 8 9 C8.66 9 9.32 9 10 9 C10 9.66 10 10.32 10 11 C10.66 11 11.32 11 12 11 C16 17.75 16 17.75 16 20 C15.34 20 14.68 20 14 20 C12.36860063 18.07412421 10.86276775 16.15673283 9.375 14.125 C8.95476562 13.56941406 8.53453125 13.01382812 8.1015625 12.44140625 C5 8.26235288 5 8.26235288 5 6 C4.34 6 3.68 6 3 6 C2.01 4.02 1.02 2.04 0 0 Z " fill="#6C6C6C" transform="translate(354,343)"/>
<path d="M0 0 C0.99 0.33 1.98 0.66 3 1 C3 1.66 3 2.32 3 3 C3.66 3 4.32 3 5 3 C8 6.46153846 8 6.46153846 8 9 C9.32 9.33 10.64 9.66 12 10 C12.33 11.65 12.66 13.3 13 15 C13.66 15 14.32 15 15 15 C15.33 16.65 15.66 18.3 16 20 C15.34 20 14.68 20 14 20 C11 16.53846154 11 16.53846154 11 14 C10.34 14 9.68 14 9 14 C5 8.58823529 5 8.58823529 5 6 C4.34 6 3.68 6 3 6 C2.67 4.68 2.34 3.36 2 2 C1.34 2 0.68 2 0 2 C0 1.34 0 0.68 0 0 Z " fill="#5F5F5F" transform="translate(215,160)"/>
<path d="M0 0 C1.38308641 2.76617283 0.90563946 4.07408791 0 7 C-1.9375 9.3125 -1.9375 9.3125 -4 11 C-4.66 11 -5.32 11 -6 11 C-6.4021875 12.1446875 -6.4021875 12.1446875 -6.8125 13.3125 C-7.94424112 15.87380884 -8.91223401 17.19692938 -11 19 C-11.66 18.67 -12.32 18.34 -13 18 C-11.625 15.5 -11.625 15.5 -10 13 C-9.34 13 -8.68 13 -8 13 C-7.90847656 12.26394531 -7.81695312 11.52789062 -7.72265625 10.76953125 C-6.88361172 7.55394976 -5.68711608 6.10072452 -3.4375 3.6875 C-2.79683594 2.99011719 -2.15617187 2.29273438 -1.49609375 1.57421875 C-1.00238281 1.05472656 -0.50867188 0.53523437 0 0 Z " fill="#AEAEAE" transform="translate(321,169)"/>
<path d="M0 0 C-0.33 0.99 -0.66 1.98 -1 3 C-1.66 3 -2.32 3 -3 3 C-3 3.66 -3 4.32 -3 5 C-3.66 5 -4.32 5 -5 5 C-5.309375 5.61875 -5.61875 6.2375 -5.9375 6.875 C-6.625 8.25 -7.3125 9.625 -8 11 C-8.66 11 -9.32 11 -10 11 C-10.33 11.99 -10.66 12.98 -11 14 C-11.66 14 -12.32 14 -13 14 C-13.33 14.99 -13.66 15.98 -14 17 C-14.66 17 -15.32 17 -16 17 C-16 16.01 -16 15.02 -16 14 C-15.195625 13.360625 -14.39125 12.72125 -13.5625 12.0625 C-10.74056308 9.79118492 -10.72343244 9.30711975 -10 6 C-7.27062491 2.80004299 -4.39364829 0 0 0 Z " fill="#F8F8F8" transform="translate(376,113)"/>
<path d="M0 0 C0.99 0.33 1.98 0.66 3 1 C3 1.66 3 2.32 3 3 C3.66 3 4.32 3 5 3 C5 3.66 5 4.32 5 5 C5.66 5 6.32 5 7 5 C7.0825 5.61875 7.165 6.2375 7.25 6.875 C8.23825442 9.67505419 9.40359985 9.74113932 12 11 C13.64786707 13.35409582 14.1010814 14.39351159 13.625 17.25 C13.41875 17.8275 13.2125 18.405 13 19 C12.34 17.35 11.68 15.7 11 14 C10.34 14 9.68 14 9 14 C7.36860063 12.07412421 5.86276775 10.15673283 4.375 8.125 C3.95476562 7.56941406 3.53453125 7.01382813 3.1015625 6.44140625 C0 2.26235288 0 2.26235288 0 0 Z " fill="#686868" transform="translate(98,124)"/>
<path d="M0 0 C4.17091527 1.39030509 5.75224917 4.35590289 8.1875 7.8125 C8.65091797 8.44220703 9.11433594 9.07191406 9.59179688 9.72070312 C10.02943359 10.33494141 10.46707031 10.94917969 10.91796875 11.58203125 C11.31781982 12.14124268 11.7176709 12.7004541 12.12963867 13.27661133 C13 15 13 15 13 19 C12.34 19 11.68 19 11 19 C9.5393715 16.35261084 9 15.10551666 9 12 C8.01 11.67 7.02 11.34 6 11 C6 10.01 6 9.02 6 8 C5.34 8 4.68 8 4 8 C4 7.34 4 6.68 4 6 C3.01 5.67 2.02 5.34 1 5 C0.67 3.35 0.34 1.7 0 0 Z " fill="#A6A6A6" transform="translate(454,406)"/>
<path d="M0 0 C0.99 0.33 1.98 0.66 3 1 C3 1.66 3 2.32 3 3 C3.66 3 4.32 3 5 3 C6.5078125 4.8984375 6.5078125 4.8984375 8.125 7.375 C8.66382813 8.18710937 9.20265625 8.99921875 9.7578125 9.8359375 C11 12 11 12 11 14 C10.34 14 9.68 14 9 14 C9 13.34 9 12.68 9 12 C6.525 11.01 6.525 11.01 4 10 C4 9.01 4 8.02 4 7 C3.34 7 2.68 7 2 7 C0 4 0 4 0 0 Z " fill="#909090" transform="translate(274,284)"/>
<path d="M0 0 C0.99 0 1.98 0 3 0 C2.67 1.65 2.34 3.3 2 5 C1.34 5 0.68 5 0 5 C-0.2475 5.556875 -0.495 6.11375 -0.75 6.6875 C-2.87913948 10.62640804 -4.67082087 13.55694029 -9 15 C-9 14.01 -9 13.02 -9 12 C-8.34 12 -7.68 12 -7 12 C-6.67 11.01 -6.34 10.02 -6 9 C-5.34 9 -4.68 9 -4 9 C-3.7834375 7.824375 -3.7834375 7.824375 -3.5625 6.625 C-3 4 -3 4 -2 2 C-1.34 2 -0.68 2 0 2 C0 1.34 0 0.68 0 0 Z " fill="#F6F6F6" transform="translate(441,34)"/>
<path d="M0 0 C0.99 0 1.98 0 3 0 C3.33 1.65 3.66 3.3 4 5 C3.40703125 5.09152344 2.8140625 5.18304688 2.203125 5.27734375 C-0.52534657 6.17232113 -1.47125041 7.33906301 -3.25 9.5625 C-3.77078125 10.20316406 -4.2915625 10.84382813 -4.828125 11.50390625 C-5.21484375 11.99761719 -5.6015625 12.49132812 -6 13 C-6.33 12.01 -6.66 11.02 -7 10 C-6.67 9.34 -6.34 8.68 -6 8 C-5.34 8 -4.68 8 -4 8 C-3.34 6.02 -2.68 4.04 -2 2 C-1.34 2 -0.68 2 0 2 C0 1.34 0 0.68 0 0 Z " fill="#E7E7E7" transform="translate(225,289)"/>
<path d="M0 0 C0.66 0 1.32 0 2 0 C6 5.41176471 6 5.41176471 6 8 C6.66 8 7.32 8 8 8 C9.5078125 9.64453125 9.5078125 9.64453125 11.125 11.8125 C11.66382813 12.52019531 12.20265625 13.22789062 12.7578125 13.95703125 C14 16 14 16 14 19 C13.34 19 12.68 19 12 19 C8 13.58823529 8 13.58823529 8 11 C7.360625 10.7525 6.72125 10.505 6.0625 10.25 C4 9 4 9 3.25 6.875 C3.1675 6.25625 3.085 5.6375 3 5 C2.34 5 1.68 5 1 5 C0.67 3.35 0.34 1.7 0 0 Z " fill="#9F9F9F" transform="translate(213,204)"/>
<path d="M0 0 C0.66 0 1.32 0 2 0 C2.33 0.99 2.66 1.98 3 3 C2.0479279 4.00596297 1.08812654 5.00461563 0.125 6 C-0.40867187 6.556875 -0.94234375 7.11375 -1.4921875 7.6875 C-3 9 -3 9 -5 9 C-5 9.66 -5 10.32 -5 11 C-6.32 11 -7.64 11 -9 11 C-8.67 10.01 -8.34 9.02 -8 8 C-7.34 8 -6.68 8 -6 8 C-6 7.34 -6 6.68 -6 6 C-5.34 6 -4.68 6 -4 6 C-3.67 5.01 -3.34 4.02 -3 3 C-2.34 3 -1.68 3 -1 3 C-0.67 2.01 -0.34 1.02 0 0 Z " fill="#535353" transform="translate(371,34)"/>
<path d="M0 0 C0.99 0 1.98 0 3 0 C2 2 1 4 0 6 C-0.66 6 -1.32 6 -2 6 C-2.2475 6.5775 -2.495 7.155 -2.75 7.75 C-4.16683317 10.3002997 -5.87627537 12.01785701 -8 14 C-8.99 13.67 -9.98 13.34 -11 13 C-10.67 12.34 -10.34 11.68 -10 11 C-9.34 11 -8.68 11 -8 11 C-7.67 10.01 -7.34 9.02 -7 8 C-6.34 8 -5.68 8 -5 8 C-5 7.34 -5 6.68 -5 6 C-4.34 5.67 -3.68 5.34 -3 5 C-2.67 4.01 -2.34 3.02 -2 2 C-1.34 2 -0.68 2 0 2 C0 1.34 0 0.68 0 0 Z " fill="#EDEDED" transform="translate(193,327)"/>
<path d="M0 0 C0.99 0.33 1.98 0.66 3 1 C3 1.66 3 2.32 3 3 C4.32 3.33 5.64 3.66 7 4 C7.33 5.32 7.66 6.64 8 8 C8.66 8 9.32 8 10 8 C10.33 9.98 10.66 11.96 11 14 C10.34 14 9.68 14 9 14 C6 10.53846154 6 10.53846154 6 8 C5.34 8 4.68 8 4 8 C0 2.58823529 0 2.58823529 0 0 Z " fill="#6E6E6E" transform="translate(270,232)"/>
<path d="M0 0 C0.66 0 1.32 0 2 0 C1.67 1.32 1.34 2.64 1 4 C0.34 4 -0.32 4 -1 4 C-1.33 5.32 -1.66 6.64 -2 8 C-2.66 8 -3.32 8 -4 8 C-4.33 8.99 -4.66 9.98 -5 11 C-5.66 11 -6.32 11 -7 11 C-7.268125 11.639375 -7.53625 12.27875 -7.8125 12.9375 C-9 15 -9 15 -12 16 C-10.32598022 12.04322598 -7.86850715 9.15535787 -5 6 C-4.34 6 -3.68 6 -3 6 C-3 5.01 -3 4.02 -3 3 C-2.34 3 -1.68 3 -1 3 C-0.67 2.01 -0.34 1.02 0 0 Z " fill="#2C2C2C" transform="translate(157,287)"/>
<path d="M0 0 C0.66 0 1.32 0 2 0 C0.02922342 5.74809835 -3.51301533 9.9617138 -8 14 C-8.66 14 -9.32 14 -10 14 C-10.33 14.99 -10.66 15.98 -11 17 C-11.66 17 -12.32 17 -13 17 C-11.63055898 14.05043472 -10.12169591 11.47531189 -8 9 C-7.34 9 -6.68 9 -6 9 C-5.67 8.01 -5.34 7.02 -5 6 C-4.34 6 -3.68 6 -3 6 C-2.690625 5.38125 -2.38125 4.7625 -2.0625 4.125 C-1.375 2.75 -0.6875 1.375 0 0 Z " fill="#1A1A1A" transform="translate(307,106)"/>
<path d="M0 0 C1.32 0 2.64 0 4 0 C4.33 1.32 4.66 2.64 5 4 C5.66 4 6.32 4 7 4 C11 10.625 11 10.625 11 14 C10.34 14 9.68 14 9 14 C8.67 13.01 8.34 12.02 8 11 C7.02246356 9.97803008 6.0194119 8.98020375 5 8 C2 4.33333333 2 4.33333333 2 2 C1.34 2 0.68 2 0 2 C0 1.34 0 0.68 0 0 Z " fill="#4C4C4C" transform="translate(165,94)"/>
<path d="M0 0 C-2.97 3.3 -5.94 6.6 -9 10 C-9.66 9.34 -10.32 8.68 -11 8 C-10.625 5.875 -10.625 5.875 -10 4 C-9.34 4 -8.68 4 -8 4 C-8 3.34 -8 2.68 -8 2 C-3.61016949 -1.20338983 -3.61016949 -1.20338983 0 0 Z " fill="#F4F4F4" transform="translate(404,83)"/>
<path d="M0 0 C2.475 0.99 2.475 0.99 5 2 C5 2.66 5 3.32 5 4 C5.66 4 6.32 4 7 4 C7.33 5.65 7.66 7.3 8 9 C8.99 9.33 9.98 9.66 11 10 C11 11.32 11 12.64 11 14 C10.34 14 9.68 14 9 14 C7.4921875 12.35546875 7.4921875 12.35546875 5.875 10.1875 C5.06675781 9.12595703 5.06675781 9.12595703 4.2421875 8.04296875 C3 6 3 6 3 3 C2.01 2.67 1.02 2.34 0 2 C0 1.34 0 0.68 0 0 Z " fill="#626262" transform="translate(245,199)"/>
<path d="M0 0 C0.99 0.33 1.98 0.66 3 1 C3 1.66 3 2.32 3 3 C3.9590625 3.1546875 3.9590625 3.1546875 4.9375 3.3125 C5.618125 3.539375 6.29875 3.76625 7 4 C7.33 4.99 7.66 5.98 8 7 C8.7734375 7.7115625 8.7734375 7.7115625 9.5625 8.4375 C11 10 11 10 11 14 C10.34 14 9.68 14 9 14 C7.5760131 12.28480923 6.2336784 10.5012088 4.9375 8.6875 C3.86822266 7.20830078 3.86822266 7.20830078 2.77734375 5.69921875 C1 3 1 3 0 0 Z " fill="#666666" transform="translate(134,171)"/>
<path d="M0 0 C1.36682561 2.73365122 0.84683011 4.10666379 0 7 C-1.74790644 9.44706902 -2.74248716 9.93412462 -5.6875 10.6875 C-6.8321875 10.8421875 -6.8321875 10.8421875 -8 11 C-8 11.66 -8 12.32 -8 13 C-9.5 14.625 -9.5 14.625 -11 16 C-11.66 15.67 -12.32 15.34 -13 15 C-7.07058824 7.75294118 -7.07058824 7.75294118 -4 5 C-3.34 5 -2.68 5 -2 5 C-1.34 3.35 -0.68 1.7 0 0 Z " fill="#9B9B9B" transform="translate(343,144)"/>
<path d="M0 0 C0.33 1.32 0.66 2.64 1 4 C0.01 4.33 -0.98 4.66 -2 5 C-2.33 5.99 -2.66 6.98 -3 8 C-3.99 8.66 -4.98 9.32 -6 10 C-6.6837045 11.32467746 -7.34964186 12.65863633 -8 14 C-9.5 15.75 -9.5 15.75 -11 17 C-11.66 17 -12.32 17 -13 17 C-12 15 -11 13 -10 11 C-9.34 11 -8.68 11 -8 11 C-7.73445313 10.41734375 -7.46890625 9.8346875 -7.1953125 9.234375 C-5.96697004 6.93825772 -4.59685061 5.19643982 -2.875 3.25 C-2.33617187 2.63640625 -1.79734375 2.0228125 -1.2421875 1.390625 C-0.62730469 0.70226563 -0.62730469 0.70226563 0 0 Z " fill="#5A5A5A" transform="translate(361,45)"/>
<path d="M0 0 C0.99 0.33 1.98 0.66 3 1 C3 1.66 3 2.32 3 3 C4.32 3.33 5.64 3.66 7 4 C7.66 6.31 8.32 8.62 9 11 C9.66 11 10.32 11 11 11 C11 11.99 11 12.98 11 14 C10.34 14 9.68 14 9 14 C6 10.53846154 6 10.53846154 6 8 C5.34 8 4.68 8 4 8 C0 2.58823529 0 2.58823529 0 0 Z " fill="#626262" transform="translate(295,380)"/>
<path d="M0 0 C0.99 0.33 1.98 0.66 3 1 C2.01 2.485 2.01 2.485 1 4 C0.34 4 -0.32 4 -1 4 C-1.33 4.99 -1.66 5.98 -2 7 C-2.66 7 -3.32 7 -4 7 C-4.28875 7.639375 -4.5775 8.27875 -4.875 8.9375 C-6 11 -6 11 -8 12 C-7.4739075 8.21213403 -6.61896089 5.82847776 -4 3 C-3.34 3 -2.68 3 -2 3 C-2 2.34 -2 1.68 -2 1 C-1.34 0.67 -0.68 0.34 0 0 Z " fill="#EEEEEE" transform="translate(173,351)"/>
<path d="M0 0 C0.66 0 1.32 0 2 0 C3.44526736 1.73548169 4.8087222 3.53975963 6.125 5.375 C6.84945313 6.37273437 7.57390625 7.37046875 8.3203125 8.3984375 C10 11 10 11 10 13 C7.525 12.01 7.525 12.01 5 11 C5 9.68 5 8.36 5 7 C4.360625 6.773125 3.72125 6.54625 3.0625 6.3125 C1 5 1 5 0.25 2.375 C0.1675 1.59125 0.085 0.8075 0 0 Z " fill="#999999" transform="translate(305,324)"/>
<path d="M0 0 C0.66 0 1.32 0 2 0 C3.63139937 1.92587579 5.13723225 3.84326717 6.625 5.875 C7.04523438 6.43058594 7.46546875 6.98617187 7.8984375 7.55859375 C11 11.73764712 11 11.73764712 11 14 C10.01 13.67 9.02 13.34 8 13 C8 12.34 8 11.68 8 11 C7.360625 10.7525 6.72125 10.505 6.0625 10.25 C4 9 4 9 3.25 6.875 C3.1675 6.25625 3.085 5.6375 3 5 C2.34 5 1.68 5 1 5 C0.67 3.35 0.34 1.7 0 0 Z " fill="#969696" transform="translate(202,190)"/>
<path d="M0 0 C0.33 0.66 0.66 1.32 1 2 C0.01 3.485 0.01 3.485 -1 5 C6.26 5.33 13.52 5.66 21 6 C21 6.33 21 6.66 21 7 C13.08 7 5.16 7 -3 7 C-3 3 -3 3 -1.5 1.25 C-1.005 0.8375 -0.51 0.425 0 0 Z " fill="#292929" transform="translate(42,420)"/>
<path d="M0 0 C2.475 0.99 2.475 0.99 5 2 C5 2.66 5 3.32 5 4 C5.66 4 6.32 4 7 4 C7 4.66 7 5.32 7 6 C7.66 6 8.32 6 9 6 C11.125 10.625 11.125 10.625 10 14 C9.731875 13.195625 9.46375 12.39125 9.1875 11.5625 C8.795625 10.716875 8.40375 9.87125 8 9 C7.01 8.67 6.02 8.34 5 8 C3.61328125 6.15234375 3.61328125 6.15234375 2.3125 3.9375 C1.87550781 3.20402344 1.43851562 2.47054688 0.98828125 1.71484375 C0.49908203 0.86599609 0.49908203 0.86599609 0 0 Z " fill="#6D6D6D" transform="translate(315,407)"/>
<path d="M0 0 C1 3 1 3 1 5 C0.030625 5.268125 -0.93875 5.53625 -1.9375 5.8125 C-2.948125 6.204375 -3.95875 6.59625 -5 7 C-5.33 7.99 -5.66 8.98 -6 10 C-8.0625 10.6875 -8.0625 10.6875 -10 11 C-9.67 10.01 -9.34 9.02 -9 8 C-8.34 8 -7.68 8 -7 8 C-6.71125 7.401875 -6.4225 6.80375 -6.125 6.1875 C-3.55172414 1.18390805 -3.55172414 1.18390805 0 0 Z " fill="#B4B4B4" transform="translate(393,89)"/>
<path d="M0 0 C0.99 0.33 1.98 0.66 3 1 C3.6875 3.0625 3.6875 3.0625 4 5 C4.66 5 5.32 5 6 5 C6.33 6.32 6.66 7.64 7 9 C7.66 9 8.32 9 9 9 C9.33 10.65 9.66 12.3 10 14 C9.34 14 8.68 14 8 14 C6.0546875 11.69921875 6.0546875 11.69921875 3.875 8.6875 C3.15054688 7.70136719 2.42609375 6.71523437 1.6796875 5.69921875 C0 3 0 3 0 0 Z " fill="#616161" transform="translate(149,71)"/>
<path d="M0 0 C0.66 0 1.32 0 2 0 C1.33333333 1.33333333 0.66666667 2.66666667 0 4 C-0.268125 4.639375 -0.53625 5.27875 -0.8125 5.9375 C-2.45650476 8.79287668 -4.56162467 10.80546221 -7 13 C-7.66 13 -8.32 13 -9 13 C-9.33 13.99 -9.66 14.98 -10 16 C-10.66 16 -11.32 16 -12 16 C-10.43474036 12.32206751 -8.14603892 9.78787492 -5.4375 6.875 C-2.36280814 3.68492491 -2.36280814 3.68492491 0 0 Z " fill="#3D3D3D" transform="translate(343,65)"/>
<path d="M0 0 C3.90371537 1.30123846 4.8170602 3.11715718 7.1875 6.4375 C7.90292969 7.42621094 8.61835938 8.41492188 9.35546875 9.43359375 C11 12 11 12 11 14 C10.34 14 9.68 14 9 14 C9 13.34 9 12.68 9 12 C8.34 12 7.68 12 7 12 C6.87625 11.071875 6.87625 11.071875 6.75 10.125 C6.37875 9.073125 6.37875 9.073125 6 8 C5.0409375 7.566875 5.0409375 7.566875 4.0625 7.125 C2 6 2 6 0.75 2.875 C0.5025 1.92625 0.255 0.9775 0 0 Z " fill="#A9A9A9" transform="translate(129,95)"/>
<path d="M0 0 C1.485 0.99 1.485 0.99 3 2 C3 2.66 3 3.32 3 4 C3.66 4 4.32 4 5 4 C7.32019297 7.19026533 9.34643078 10.41726669 11 14 C10.34 14 9.68 14 9 14 C9 13.34 9 12.68 9 12 C8.071875 11.566875 8.071875 11.566875 7.125 11.125 C5 10 5 10 3 8 C3 7.01 3 6.02 3 5 C2.34 5 1.68 5 1 5 C0.67 3.35 0.34 1.7 0 0 Z " fill="#8C8C8C" transform="translate(188,56)"/>
<path d="M0 0 C0.99 0.33 1.98 0.66 3 1 C4.1875 3.5625 4.1875 3.5625 5 6 C5.66 6 6.32 6 7 6 C11 11.41176471 11 11.41176471 11 14 C10.01 13.67 9.02 13.34 8 13 C8 12.34 8 11.68 8 11 C7.34 11 6.68 11 6 11 C2 4.25 2 4.25 2 2 C1.34 2 0.68 2 0 2 C0 1.34 0 0.68 0 0 Z " fill="#A4A4A4" transform="translate(291,306)"/>
<path d="M0 0 C0.33 0.66 0.66 1.32 1 2 C0.67 2.99 0.34 3.98 0 5 C-0.99 5 -1.98 5 -3 5 C-3.226875 5.7425 -3.45375 6.485 -3.6875 7.25 C-5.24928606 10.52231364 -7.12235056 11.86020939 -10 14 C-10.33 14.66 -10.66 15.32 -11 16 C-11.66 15.67 -12.32 15.34 -13 15 C-11.88266271 13.49428343 -10.75589965 11.99555708 -9.625 10.5 C-8.99851563 9.6646875 -8.37203125 8.829375 -7.7265625 7.96875 C-7.15679687 7.3190625 -6.58703125 6.669375 -6 6 C-5.34 6 -4.68 6 -4 6 C-3.67 5.01 -3.34 4.02 -3 3 C-2.34 3 -1.68 3 -1 3 C-0.67 2.01 -0.34 1.02 0 0 Z " fill="#6F6F6F" transform="translate(218,297)"/>
<path d="M0 0 C0 0.99 0 1.98 0 3 C-0.66 3.66 -1.32 4.32 -2 5 C-2.39764263 6.98821313 -2.73775349 8.98944339 -3 11 C-5.31 11.33 -7.62 11.66 -10 12 C-9.67 11.34 -9.34 10.68 -9 10 C-8.34 10 -7.68 10 -7 10 C-6.773125 9.46375 -6.54625 8.9275 -6.3125 8.375 C-4.56617944 5.21499137 -2.3597151 2.7323017 0 0 Z " fill="#9E9E9E" transform="translate(168,354)"/>
<path d="M0 0 C0.33 0.66 0.66 1.32 1 2 C0.67 2.99 0.34 3.98 0 5 C-0.99 5 -1.98 5 -3 5 C-3 5.66 -3 6.32 -3 7 C-3.66 7 -4.32 7 -5 7 C-5.33 8.32 -5.66 9.64 -6 11 C-6.66 11 -7.32 11 -8 11 C-8 11.66 -8 12.32 -8 13 C-9.5 14.625 -9.5 14.625 -11 16 C-11.66 15.67 -12.32 15.34 -13 15 C-11.88266271 13.49428343 -10.75589965 11.99555708 -9.625 10.5 C-8.99851563 9.6646875 -8.37203125 8.829375 -7.7265625 7.96875 C-7.15679687 7.3190625 -6.58703125 6.669375 -6 6 C-5.34 6 -4.68 6 -4 6 C-4 5.34 -4 4.68 -4 4 C-2.70766393 2.62689293 -1.37562854 1.28965176 0 0 Z " fill="#747474" transform="translate(196,322)"/>
<path d="M0 0 C0.99 0.33 1.98 0.66 3 1 C3 1.66 3 2.32 3 3 C3.66 3 4.32 3 5 3 C5.33 3.99 5.66 4.98 6 6 C6.66 6.268125 7.32 6.53625 8 6.8125 C8.66 7.204375 9.32 7.59625 10 8 C10.75 11.125 10.75 11.125 11 14 C10.34 14 9.68 14 9 14 C8.02274712 12.61836662 7.05538757 11.22811427 6.15234375 9.796875 C4.91841462 7.87278213 3.5967743 6.03406873 2.25 4.1875 C0 1 0 1 0 0 Z " fill="#777777" transform="translate(123,157)"/>
<path d="M0 0 C0.33 0.99 0.66 1.98 1 3 C-0.8125 5.6875 -0.8125 5.6875 -3 8 C-3.66 8 -4.32 8 -5 8 C-5 8.66 -5 9.32 -5 10 C-6.62626404 11.38232443 -8.2925002 12.71937515 -10 14 C-10.66 13.67 -11.32 13.34 -12 13 C-11.04882866 11.8274869 -10.08882991 10.66212985 -9.125 9.5 C-8.59132813 8.8503125 -8.05765625 8.200625 -7.5078125 7.53125 C-7.01023437 7.0259375 -6.51265625 6.520625 -6 6 C-5.34 6 -4.68 6 -4 6 C-3.67 5.01 -3.34 4.02 -3 3 C-2.34 3 -1.68 3 -1 3 C-0.67 2.01 -0.34 1.02 0 0 Z " fill="#303030" transform="translate(280,137)"/>
<path d="M0 0 C0.99 0.33 1.98 0.66 3 1 C3 1.66 3 2.32 3 3 C3.66 3 4.32 3 5 3 C5 3.66 5 4.32 5 5 C10.94 5 16.88 5 23 5 C23 5.33 23 5.66 23 6 C19.72946483 6.11608726 16.4594582 6.18720711 13.1875 6.25 C12.25873047 6.28351563 11.32996094 6.31703125 10.37304688 6.3515625 C9.0340332 6.37089844 9.0340332 6.37089844 7.66796875 6.390625 C6.84578857 6.41157227 6.0236084 6.43251953 5.17651367 6.45410156 C3 6 3 6 1.20825195 4.10058594 C0 2 0 2 0 0 Z " fill="#4E4E4E" transform="translate(326,421)"/>
<path d="M0 0 C4.37374458 4.25225167 8.49595003 8.36588757 11 14 C9.25 13.875 9.25 13.875 7 13 C3 7.77777778 3 7.77777778 3 5 C2.34 5 1.68 5 1 5 C0.67 3.35 0.34 1.7 0 0 Z " fill="#A9A9A9" transform="translate(171,149)"/>
<path d="M0 0 C0.33 0.66 0.66 1.32 1 2 C0.54625 2.391875 0.0925 2.78375 -0.375 3.1875 C-2.15460145 4.95145032 -2.15460145 4.95145032 -2.9375 7.5 C-4.16608907 10.39079782 -5.3269438 11.41287288 -8 13 C-8.66 13 -9.32 13 -10 13 C-9.67 12.01 -9.34 11.02 -9 10 C-8.34 10 -7.68 10 -7 10 C-6.71125 9.401875 -6.4225 8.80375 -6.125 8.1875 C-5 6 -5 6 -3 3 C-2.34 3 -1.68 3 -1 3 C-0.67 2.01 -0.34 1.02 0 0 Z " fill="#939393" transform="translate(357,128)"/>
<path d="M0 0 C1 2 1 2 0.9375 4.4375 C0 7 0 7 -2.9375 8.8125 C-6 10 -6 10 -8 10 C-8 10.66 -8 11.32 -8 12 C-8.66 11.67 -9.32 11.34 -10 11 C-8.71937515 9.2925002 -7.38232443 7.62626404 -6 6 C-5.34 6 -4.68 6 -4 6 C-3.67 5.01 -3.34 4.02 -3 3 C-2.34 3 -1.68 3 -1 3 C-0.67 2.01 -0.34 1.02 0 0 Z " fill="#A1A1A1" transform="translate(404,75)"/>
<path d="M0 0 C0.66 0.33 1.32 0.66 2 1 C0.625 3 0.625 3 -1 5 C-1.66 5 -2.32 5 -3 5 C-3.2475 5.78375 -3.495 6.5675 -3.75 7.375 C-5.15389099 10.32317108 -6.00675737 10.9024777 -9 12 C-6.78854247 7.20850869 -4.43836824 2.95891216 0 0 Z " fill="#1A1A1A" transform="translate(118,333)"/>
<path d="M0 0 C0.66 0 1.32 0 2 0 C2.33 0.66 2.66 1.32 3 2 C3.99 2.33 4.98 2.66 6 3 C7.4477922 5.89558441 8 7.74188938 8 11 C7.34 11 6.68 11 6 11 C5.67 9.68 5.34 8.36 5 7 C4.34 7 3.68 7 3 7 C0 2.61538462 0 2.61538462 0 0 Z " fill="#8C8C8C" transform="translate(229,294)"/>
<path d="M0 0 C4.875 4.625 4.875 4.625 6 8 C6.66 8 7.32 8 8 8 C8.33 9.65 8.66 11.3 9 13 C5.24623848 11.74874616 4.75926711 10.4347596 3 7 C3 6.34 3 5.68 3 5 C2.34 5 1.68 5 1 5 C0.67 3.35 0.34 1.7 0 0 Z " fill="#A8A8A8" transform="translate(246,132)"/>
<path d="M0 0 C1.32 0.33 2.64 0.66 4 1 C4.33 2.32 4.66 3.64 5 5 C5.66 5 6.32 5 7 5 C7.33 6.98 7.66 8.96 8 11 C7.34 11 6.68 11 6 11 C5.67 9.35 5.34 7.7 5 6 C4.01 5.67 3.02 5.34 2 5 C0.8125 2.4375 0.8125 2.4375 0 0 Z " fill="#4E4E4E" transform="translate(90,113)"/>
<path d="M0 0 C1.485 0.99 1.485 0.99 3 2 C3 2.66 3 3.32 3 4 C3.66 4 4.32 4 5 4 C9 9.41176471 9 9.41176471 9 12 C8.01 11.67 7.02 11.34 6 11 C6 10.34 6 9.68 6 9 C5.34 9 4.68 9 4 9 C4 8.01 4 7.02 4 6 C3.01 5.67 2.02 5.34 1 5 C0.67 3.35 0.34 1.7 0 0 Z " fill="#9A9A9A" transform="translate(207,81)"/>
<path d="M0 0 C0.33 0.99 0.66 1.98 1 3 C0.0479279 4.00596297 -0.91187346 5.00461563 -1.875 6 C-2.40867187 6.556875 -2.94234375 7.11375 -3.4921875 7.6875 C-5 9 -5 9 -7 9 C-6.875 6.75 -6.875 6.75 -6 4 C-2.9375 1.6875 -2.9375 1.6875 0 0 Z " fill="#EFEFEF" transform="translate(423,57)"/>
<path d="M0 0 C1 2 1 2 0.375 5 C-1 8 -1 8 -3.4375 9.375 C-6 10 -6 10 -9 10 C-7.625 8 -7.625 8 -6 6 C-5.34 6 -4.68 6 -4 6 C-3.67 5.01 -3.34 4.02 -3 3 C-2.34 3 -1.68 3 -1 3 C-0.67 2.01 -0.34 1.02 0 0 Z " fill="#A5A5A5" transform="translate(426,50)"/>
<path d="M0 0 C5.80205656 5.64524422 5.80205656 5.64524422 8 9 C8 9.66 8 10.32 8 11 C5.525 10.01 5.525 10.01 3 9 C3 7.68 3 6.36 3 5 C2.34 5 1.68 5 1 5 C0.67 3.35 0.34 1.7 0 0 Z " fill="#888888" transform="translate(410,348)"/>
<path d="M0 0 C1.5 1.375 1.5 1.375 3 3 C3 3.66 3 4.32 3 5 C3.99 5.33 4.98 5.66 6 6 C7.1875 8.5625 7.1875 8.5625 8 11 C7.34 11 6.68 11 6 11 C6 10.34 6 9.68 6 9 C5.401875 8.731875 4.80375 8.46375 4.1875 8.1875 C1.95406717 6.97506504 0.50061801 6.05347727 -1 4 C-0.6875 1.8125 -0.6875 1.8125 0 0 Z " fill="#969696" transform="translate(402,337)"/>
<path d="M0 0 C5.57142857 5.14285714 5.57142857 5.14285714 6 9 C6.66 9 7.32 9 8 9 C8 9.66 8 10.32 8 11 C5.50638429 9.79618552 3.31856917 8.54571278 1 7 C0.3125 3.375 0.3125 3.375 0 0 Z " fill="#A0A0A0" transform="translate(324,234)"/>
<path d="M0 0 C3.79620155 1.26540052 4.48678188 2.78218431 6.6875 6.0625 C7.31011719 6.98160156 7.93273437 7.90070313 8.57421875 8.84765625 C9.04472656 9.55792969 9.51523437 10.26820313 10 11 C9.01 11.495 9.01 11.495 8 12 C5 8.25 5 8.25 5 6 C3.68 5.67 2.36 5.34 1 5 C0.67 3.35 0.34 1.7 0 0 Z " fill="#949494" transform="translate(255,145)"/>
<path d="M0 0 C0.99 0.33 1.98 0.66 3 1 C3 1.66 3 2.32 3 3 C3.66 3 4.32 3 5 3 C9 8.29411765 9 8.29411765 9 12 C8.34 12 7.68 12 7 12 C6.67 10.68 6.34 9.36 6 8 C5.34 8 4.68 8 4 8 C3.67 6.68 3.34 5.36 3 4 C2.34 4 1.68 4 1 4 C0.67 2.68 0.34 1.36 0 0 Z " fill="#7C7C7C" transform="translate(192,129)"/>
<path d="M0 0 C3.25326479 3.16289633 6.36725392 6.29465367 9 10 C9 10.99 9 11.98 9 13 C5.24623848 11.74874616 4.75926711 10.4347596 3 7 C3 6.34 3 5.68 3 5 C2.34 5 1.68 5 1 5 C0.67 3.35 0.34 1.7 0 0 Z " fill="#9D9D9D" transform="translate(221,99)"/>
<path d="M0 0 C5.80205656 5.64524422 5.80205656 5.64524422 8 9 C8 9.66 8 10.32 8 11 C7.34 11 6.68 11 6 11 C6 10.34 6 9.68 6 9 C3.525 8.01 3.525 8.01 1 7 C0.67 4.69 0.34 2.38 0 0 Z " fill="#8A8A8A" transform="translate(199,70)"/>
<path d="M0 0 C5.80205656 5.64524422 5.80205656 5.64524422 8 9 C8 9.66 8 10.32 8 11 C7.34 11 6.68 11 6 11 C6 10.34 6 9.68 6 9 C5.38125 8.7525 4.7625 8.505 4.125 8.25 C1.60474173 6.76749514 0.98768341 5.71612936 0 3 C0 2.01 0 1.02 0 0 Z " fill="#A7A7A7" transform="translate(446,395)"/>
<path d="M0 0 C0.66 0 1.32 0 2 0 C0.36260685 5.20988728 -2.55376114 8.61159416 -7.3125 11.3125 C-8.1478125 11.6528125 -8.1478125 11.6528125 -9 12 C-8.00102287 9.00306862 -7.34869747 7.97290587 -5 6 C-4.34 6 -3.68 6 -3 6 C-2.690625 5.38125 -2.38125 4.7625 -2.0625 4.125 C-1.375 2.75 -0.6875 1.375 0 0 Z " fill="#1E1E1E" transform="translate(82,373)"/>
<path d="M0 0 C0.66 0.33 1.32 0.66 2 1 C0.97677282 4.06968154 0.38506416 4.96827868 -2 7 C-4 8 -4 8 -6 9 C-6.33 9.66 -6.66 10.32 -7 11 C-7.66 10.67 -8.32 10.34 -9 10 C-7.8758824 8.70756532 -6.75067408 7.41607925 -5.625 6.125 C-4.99851562 5.40570313 -4.37203125 4.68640625 -3.7265625 3.9453125 C-2.52573166 2.5923402 -1.2791655 1.2791655 0 0 Z " fill="#9E9E9E" transform="translate(436,39)"/>
<path d="M0 0 C0.33 0.66 0.66 1.32 1 2 C0.0625 4.625 0.0625 4.625 -1 7 C-0.01 7.33 0.98 7.66 2 8 C2.6875 10.0625 2.6875 10.0625 3 12 C2.01 11.67 1.02 11.34 0 11 C0 10.34 0 9.68 0 9 C-0.99 8.67 -1.98 8.34 -3 8 C-2.25 2.25 -2.25 2.25 0 0 Z " fill="#848484" transform="translate(299,194)"/>
<path d="M0 0 C5.80205656 5.64524422 5.80205656 5.64524422 8 9 C8 9.66 8 10.32 8 11 C7.34 11 6.68 11 6 11 C6 10.34 6 9.68 6 9 C5.01 8.67 4.02 8.34 3 8 C3 7.01 3 6.02 3 5 C2.34 5 1.68 5 1 5 C0.67 3.35 0.34 1.7 0 0 Z " fill="#ADADAD" transform="translate(421,362)"/>
<path d="M0 0 C0 0.66 0 1.32 0 2 C-0.66 2 -1.32 2 -2 2 C-2.28875 2.598125 -2.5775 3.19625 -2.875 3.8125 C-4 6 -4 6 -6 9 C-6.66 9 -7.32 9 -8 9 C-7.67 7.35 -7.34 5.7 -7 4 C-6.34 4 -5.68 4 -5 4 C-4.67 3.01 -4.34 2.02 -4 1 C-2 0 -2 0 0 0 Z " fill="#EAEAEA" transform="translate(204,318)"/>
<path d="M0 0 C0.99 0.33 1.98 0.66 3 1 C3 1.66 3 2.32 3 3 C3.66 3 4.32 3 5 3 C5.66 4.65 6.32 6.3 7 8 C5.68 7.67 4.36 7.34 3 7 C3 6.34 3 5.68 3 5 C2.34 5 1.68 5 1 5 C0.67 3.35 0.34 1.7 0 0 Z " fill="#9A9A9A" transform="translate(230,112)"/>
<path d="M0 0 C3.75376152 1.25125384 4.24073289 2.5652404 6 6 C6 6.66 6 7.32 6 8 C4.125 7.6875 4.125 7.6875 2 7 C0 4 0 4 0 0 Z " fill="#939393" transform="translate(285,298)"/>
<path d="M0 0 C1.32 0.33 2.64 0.66 4 1 C4.33 2.65 4.66 4.3 5 6 C5.66 6 6.32 6 7 6 C7.33 7.65 7.66 9.3 8 11 C2.42857143 5.85714286 2.42857143 5.85714286 2 2 C1.34 2 0.68 2 0 2 C0 1.34 0 0.68 0 0 Z " fill="#989898" transform="translate(285,252)"/>
<path d="M0 0 C0.99 0.33 1.98 0.66 3 1 C3 1.66 3 2.32 3 3 C3.66 3 4.32 3 5 3 C7.1875 5.8125 7.1875 5.8125 9 9 C8.67 9.99 8.34 10.98 8 12 C5 8.25 5 8.25 5 6 C4.34 6 3.68 6 3 6 C2.67 4.68 2.34 3.36 2 2 C1.34 2 0.68 2 0 2 C0 1.34 0 0.68 0 0 Z " fill="#868686" transform="translate(215,160)"/>
<path d="M0 0 C0.99 0.33 1.98 0.66 3 1 C3 1.99 3 2.98 3 4 C4.32 4.33 5.64 4.66 7 5 C7.33 6.98 7.66 8.96 8 11 C6.5 9.625 6.5 9.625 5 8 C5 7.34 5 6.68 5 6 C4.01 5.67 3.02 5.34 2 5 C0.8125 2.4375 0.8125 2.4375 0 0 Z " fill="#6A6A6A" transform="translate(115,146)"/>
<path d="M0 0 C0.99 0 1.98 0 3 0 C2.34 1.32 1.68 2.64 1 4 C0.34 4 -0.32 4 -1 4 C-1.33 4.99 -1.66 5.98 -2 7 C-4.0625 7.6875 -4.0625 7.6875 -6 8 C-5.67 7.01 -5.34 6.02 -5 5 C-4.34 5 -3.68 5 -3 5 C-2.67 4.01 -2.34 3.02 -2 2 C-1.34 2 -0.68 2 0 2 C0 1.34 0 0.68 0 0 Z " fill="#222222" transform="translate(326,85)"/>
<path d="M0 0 C2.4375 0.625 2.4375 0.625 5 2 C5.8125 5.125 5.8125 5.125 6 8 C5.34 8 4.68 8 4 8 C0 2.58823529 0 2.58823529 0 0 Z " fill="#666666" transform="translate(306,394)"/>
<path d="M0 0 C1.32 0 2.64 0 4 0 C2.63055898 2.94956528 1.12169591 5.52468811 -1 8 C-1.66 8 -2.32 8 -3 8 C-3 7.01 -3 6.02 -3 5 C-2.34 5 -1.68 5 -1 5 C-0.67 3.35 -0.34 1.7 0 0 Z " fill="#ECECEC" transform="translate(158,366)"/>
<path d="M0 0 C0.99 0 1.98 0 3 0 C3 2 3 2 1.25 3.875 C0.5075 4.57625 -0.235 5.2775 -1 6 C-1.7425 6.7425 -2.485 7.485 -3.25 8.25 C-3.8275 8.8275 -4.405 9.405 -5 10 C-4.67 8.35 -4.34 6.7 -4 5 C-3.34 5 -2.68 5 -2 5 C-1.34 3.35 -0.68 1.7 0 0 Z " fill="#EFEFEF" transform="translate(215,302)"/>
<path d="M0 0 C2.375 0.1875 2.375 0.1875 5 1 C6.3125 3.5625 6.3125 3.5625 7 6 C4.625 5.8125 4.625 5.8125 2 5 C0.6875 2.4375 0.6875 2.4375 0 0 Z " fill="#6E6E6E" transform="translate(344,264)"/>
<path d="M0 0 C0.66 0.33 1.32 0.66 2 1 C-0.31 3.64 -2.62 6.28 -5 9 C-5.33 8.01 -5.66 7.02 -6 6 C-5.67 5.34 -5.34 4.68 -5 4 C-4.34 4 -3.68 4 -3 4 C-2.67 3.01 -2.34 2.02 -2 1 C-1.34 0.67 -0.68 0.34 0 0 Z " fill="#E7E7E7" transform="translate(327,165)"/>
<path d="M0 0 C0.33 1.32 0.66 2.64 1 4 C0.01 4.33 -0.98 4.66 -2 5 C-2.33 5.99 -2.66 6.98 -3 8 C-5.0625 8.6875 -5.0625 8.6875 -7 9 C-6.67 8.01 -6.34 7.02 -6 6 C-5.34 6 -4.68 6 -4 6 C-3.67 5.01 -3.34 4.02 -3 3 C-2.34 3 -1.68 3 -1 3 C-0.67 2.01 -0.34 1.02 0 0 Z " fill="#949494" transform="translate(365,119)"/>
<path d="M0 0 C5.80205656 5.64524422 5.80205656 5.64524422 8 9 C8 9.66 8 10.32 8 11 C7.34 11 6.68 11 6 11 C6 10.34 6 9.68 6 9 C5.34 9 4.68 9 4 9 C3.67 7.68 3.34 6.36 3 5 C2.34 5 1.68 5 1 5 C0.67 3.35 0.34 1.7 0 0 Z " fill="#9C9C9C" transform="translate(121,84)"/>
<path d="M0 0 C0.66 0 1.32 0 2 0 C4.32019297 3.19026533 6.34643078 6.41726669 8 10 C6 10 6 10 4.4921875 8.57421875 C3.95851563 7.95160156 3.42484375 7.32898438 2.875 6.6875 C2.33617187 6.07261719 1.79734375 5.45773437 1.2421875 4.82421875 C0 3 0 3 0 0 Z " fill="#979797" transform="translate(341,371)"/>
<path d="M0 0 C1.32 0 2.64 0 4 0 C4.66 1.98 5.32 3.96 6 6 C6.66 6 7.32 6 8 6 C8 6.99 8 7.98 8 9 C7.34 9 6.68 9 6 9 C5.67 7.68 5.34 6.36 5 5 C4.34 5 3.68 5 3 5 C1.375 2.5 1.375 2.5 0 0 Z " fill="#808080" transform="translate(326,307)"/>
<path d="M0 0 C3.75376152 1.25125384 4.24073289 2.5652404 6 6 C6 6.66 6 7.32 6 8 C5.01 7.67 4.02 7.34 3 7 C3 6.34 3 5.68 3 5 C2.01 4.67 1.02 4.34 0 4 C0 2.68 0 1.36 0 0 Z " fill="#9C9C9C" transform="translate(238,237)"/>
<path d="M0 0 C0.99 0 1.98 0 3 0 C1.50902342 3.7952131 -0.75700849 5.61042731 -4 8 C-3.67 6.35 -3.34 4.7 -3 3 C-2.34 3 -1.68 3 -1 3 C-0.67 2.01 -0.34 1.02 0 0 Z " fill="#EAEAEA" transform="translate(347,141)"/>
<path d="M0 0 C0.66 0 1.32 0 2 0 C0.63055898 2.94956528 -0.87830409 5.52468811 -3 8 C-3.66 8 -4.32 8 -5 8 C-4.67 6.35 -4.34 4.7 -4 3 C-3.01 3 -2.02 3 -1 3 C-0.67 2.01 -0.34 1.02 0 0 Z " fill="#F0F0F0" transform="translate(124,407)"/>
<path d="M0 0 C1.98 0.66 3.96 1.32 6 2 C6.33 3.65 6.66 5.3 7 7 C5.1875 6.875 5.1875 6.875 3 6 C1.25 2.9375 1.25 2.9375 0 0 Z " fill="#545454" transform="translate(354,343)"/>
<path d="M0 0 C0.66 0 1.32 0 2 0 C6 5.41176471 6 5.41176471 6 8 C5.01 7.67 4.02 7.34 3 7 C3 6.34 3 5.68 3 5 C2.01 4.67 1.02 4.34 0 4 C0 2.68 0 1.36 0 0 Z " fill="#898989" transform="translate(374,301)"/>
<path d="M0 0 C0.99 0 1.98 0 3 0 C3.33 1.65 3.66 3.3 4 5 C1.69 5 -0.62 5 -3 5 C-2.67 4.01 -2.34 3.02 -2 2 C-1.34 2 -0.68 2 0 2 C0 1.34 0 0.68 0 0 Z " fill="#8E8E8E" transform="translate(225,289)"/>
<path d="M0 0 C1.32 0.33 2.64 0.66 4 1 C4.33 2.98 4.66 4.96 5 7 C4.01 6.67 3.02 6.34 2 6 C0.8125 2.9375 0.8125 2.9375 0 0 Z " fill="#737373" transform="translate(233,232)"/>
<path d="M0 0 C4.875 4.625 4.875 4.625 6 8 C4.125 7.6875 4.125 7.6875 2 7 C0 4 0 4 0 0 Z " fill="#838383" transform="translate(332,359)"/>
<path d="M0 0 C0.66 0 1.32 0 2 0 C6 5.41176471 6 5.41176471 6 8 C5.01 7.67 4.02 7.34 3 7 C3 6.34 3 5.68 3 5 C2.34 5 1.68 5 1 5 C0.67 3.35 0.34 1.7 0 0 Z " fill="#A1A1A1" transform="translate(249,251)"/>
<path d="M0 0 C1.875 0.25 1.875 0.25 4 1 C5.3125 2.875 5.3125 2.875 6 5 C5.67 5.99 5.34 6.98 5 8 C4.34 6.68 3.68 5.36 3 4 C2.34 4 1.68 4 1 4 C0.67 2.68 0.34 1.36 0 0 Z " fill="#616161" transform="translate(184,236)"/>
<path d="M0 0 C1.98 0.66 3.96 1.32 6 2 C6.33 3.98 6.66 5.96 7 8 C4.35247996 5.42215154 2.05567935 3.08351902 0 0 Z " fill="#818181" transform="translate(163,210)"/>
<path d="M0 0 C4.875 4.625 4.875 4.625 6 8 C4.125 7.6875 4.125 7.6875 2 7 C0 4 0 4 0 0 Z " fill="#7A7A7A" transform="translate(196,182)"/>
<path d="M0 0 C2.64 0 5.28 0 8 0 C8 0.66 8 1.32 8 2 C7.01 2.33 6.02 2.66 5 3 C5 3.66 5 4.32 5 5 C4.01 4.67 3.02 4.34 2 4 C2 3.01 2 2.02 2 1 C1.34 0.67 0.68 0.34 0 0 Z " fill="#A6A6A6" transform="translate(108,69)"/>
<path d="M0 0 C1.32 0.33 2.64 0.66 4 1 C4.66 3.31 5.32 5.62 6 8 C1.2 4.55384615 1.2 4.55384615 0.1875 1.75 C0.125625 1.1725 0.06375 0.595 0 0 Z " fill="#636363" transform="translate(37,44)"/>
<path d="M0 0 C0.66 0 1.32 0 2 0 C0.68775452 3.93673644 -0.91910327 6.22719294 -4 9 C-4 4.9666466 -2.39120082 3.16482462 0 0 Z " fill="#242424" transform="translate(60,398)"/>
<path d="M0 0 C4.875 4.625 4.875 4.625 6 8 C4.68 7.67 3.36 7.34 2 7 C1.34 4.69 0.68 2.38 0 0 Z " fill="#A1A1A1" transform="translate(429,373)"/>
<path d="M0 0 C0.66 0 1.32 0 2 0 C6 5.41176471 6 5.41176471 6 8 C5.01 7.67 4.02 7.34 3 7 C3 6.34 3 5.68 3 5 C2.01 4.67 1.02 4.34 0 4 C0 2.68 0 1.36 0 0 Z " fill="#949494" transform="translate(360,282)"/>
<path d="M0 0 C-0.66 1.65 -1.32 3.3 -2 5 C-2.66 5 -3.32 5 -4 5 C-4 5.66 -4 6.32 -4 7 C-5.32 7.33 -6.64 7.66 -8 8 C-3.45945946 0 -3.45945946 0 0 0 Z " fill="#1D1D1D" transform="translate(176,268)"/>
<path d="M0 0 C0.99 0.33 1.98 0.66 3 1 C3 1.66 3 2.32 3 3 C3.66 3 4.32 3 5 3 C5.33 4.65 5.66 6.3 6 8 C5.34 8 4.68 8 4 8 C0 2.58823529 0 2.58823529 0 0 Z " fill="#6C6C6C" transform="translate(156,199)"/>
<path d="M0 0 C0.66 0 1.32 0 2 0 C0.8141763 3.37503669 -0.27573689 5.64722731 -3 8 C-3.66 7.67 -4.32 7.34 -5 7 C-3.625 4.5 -3.625 4.5 -2 2 C-1.34 2 -0.68 2 0 2 C0 1.34 0 0.68 0 0 Z " fill="#E9E9E9" transform="translate(313,180)"/>
<path d="M0 0 C1.32 0.33 2.64 0.66 4 1 C4.12375 1.804375 4.2475 2.60875 4.375 3.4375 C4.684375 4.7059375 4.684375 4.7059375 5 6 C5.66 6.33 6.32 6.66 7 7 C6.01 7 5.02 7 4 7 C0 2.65714286 0 2.65714286 0 0 Z " fill="#737373" transform="translate(176,108)"/>
<path d="M0 0 C1.32 0 2.64 0 4 0 C6.125 4.625 6.125 4.625 5 8 C2 4.25 2 4.25 2 2 C1.34 2 0.68 2 0 2 C0 1.34 0 0.68 0 0 Z " fill="#7B7B7B" transform="translate(165,94)"/>
<path d="M0 0 C1.43088528 2.86177057 0.59991697 4.93375773 0 8 C-0.33 7.34 -0.66 6.68 -1 6 C-2.65 6.66 -4.3 7.32 -6 8 C-4.02 5.36 -2.04 2.72 0 0 Z " fill="#9D9D9D" transform="translate(416,61)"/>
<path d="M0 0 C1.32 0.33 2.64 0.66 4 1 C4.33 2.98 4.66 4.96 5 7 C3 7 3 7 1.375 5.75 C0 4 0 4 0 0 Z " fill="#595959" transform="translate(170,34)"/>
<path d="M0 0 C0.33 0 0.66 0 1 0 C1 1.65 1 3.3 1 5 C0.01 5.33 -0.98 5.66 -2 6 C-2.33 6.66 -2.66 7.32 -3 8 C-3.66 7.67 -4.32 7.34 -5 7 C-4.34 5.68 -3.68 4.36 -3 3 C-2.34 3 -1.68 3 -1 3 C-0.67 2.01 -0.34 1.02 0 0 Z " fill="#A8A8A8" transform="translate(126,402)"/>
<path d="M0 0 C2.5 1.8125 2.5 1.8125 5 4 C5 4.99 5 5.98 5 7 C3.68 7 2.36 7 1 7 C0.67 4.69 0.34 2.38 0 0 Z " fill="#717171" transform="translate(349,381)"/>
<path d="M0 0 C3.75376152 1.25125384 4.24073289 2.5652404 6 6 C6 6.66 6 7.32 6 8 C5.34 8 4.68 8 4 8 C0 3.64705882 0 3.64705882 0 0 Z " fill="#696969" transform="translate(381,377)"/>
<path d="M0 0 C4.875 4.625 4.875 4.625 6 8 C4.125 7.375 4.125 7.375 2 6 C0.75 2.875 0.75 2.875 0 0 Z " fill="#ADADAD" transform="translate(326,351)"/>
<path d="M0 0 C0.66 0 1.32 0 2 0 C6 5.41176471 6 5.41176471 6 8 C5.01 7.67 4.02 7.34 3 7 C3 6.34 3 5.68 3 5 C2.34 5 1.68 5 1 5 C0.67 3.35 0.34 1.7 0 0 Z " fill="#989898" transform="translate(385,315)"/>
<path d="M0 0 C0.66 0 1.32 0 2 0 C6 5.41176471 6 5.41176471 6 8 C5.01 7.67 4.02 7.34 3 7 C3 6.34 3 5.68 3 5 C2.34 5 1.68 5 1 5 C0.67 3.35 0.34 1.7 0 0 Z " fill="#A3A3A3" transform="translate(260,265)"/>
<path d="M0 0 C0.33 0.66 0.66 1.32 1 2 C-0.2739589 4.03833424 -1.61061923 6.03852126 -3 8 C-3.66 8 -4.32 8 -5 8 C-3.8141763 4.62496331 -2.72426311 2.35277269 0 0 Z " fill="#202020" transform="translate(189,251)"/>
<path d="M0 0 C1.32 0 2.64 0 4 0 C5.0625 1.8125 5.0625 1.8125 6 4 C5.67 4.99 5.34 5.98 5 7 C4.34 5.68 3.68 4.36 3 3 C2.34 3 1.68 3 1 3 C0.67 2.01 0.34 1.02 0 0 Z " fill="#676767" transform="translate(148,190)"/>
<path d="M0 0 C1.32 0.33 2.64 0.66 4 1 C4.66 3.31 5.32 5.62 6 8 C1.125 3.375 1.125 3.375 0 0 Z " fill="#7C7C7C" transform="translate(201,141)"/>
<path d="M0 0 C0.66 0 1.32 0 2 0 C1.34 1.65 0.68 3.3 0 5 C-0.66 5 -1.32 5 -2 5 C-2.33 5.99 -2.66 6.98 -3 8 C-3.66 8 -4.32 8 -5 8 C-3.63055898 5.05043472 -2.12169591 2.47531189 0 0 Z " fill="#2E2E2E" transform="translate(299,115)"/>
<path d="M0 0 C3.75376152 1.25125384 4.24073289 2.5652404 6 6 C6 6.66 6 7.32 6 8 C5.34 8 4.68 8 4 8 C4 7.34 4 6.68 4 6 C3.01 5.67 2.02 5.34 1 5 C0.67 3.35 0.34 1.7 0 0 Z " fill="#9F9F9F" transform="translate(140,109)"/>
<path d="M0 0 C0.99 0.33 1.98 0.66 3 1 C3 1.66 3 2.32 3 3 C3.66 3 4.32 3 5 3 C5.33 4.65 5.66 6.3 6 8 C5.34 8 4.68 8 4 8 C0 2.58823529 0 2.58823529 0 0 Z " fill="#696969" transform="translate(73,91)"/>
<path d="M0 0 C1.32 0.33 2.64 0.66 4 1 C4.33 2.65 4.66 4.3 5 6 C4.01 5.67 3.02 5.34 2 5 C2 4.34 2 3.68 2 3 C1.34 3 0.68 3 0 3 C0 2.01 0 1.02 0 0 Z " fill="#545454" transform="translate(376,371)"/>
<path d="M0 0 C0.99 0.33 1.98 0.66 3 1 C3 1.66 3 2.32 3 3 C3.66 3 4.32 3 5 3 C5.33 4.65 5.66 6.3 6 8 C1.125 3.375 1.125 3.375 0 0 Z " fill="#858585" transform="translate(284,366)"/>
<path d="M0 0 C0.99 0.33 1.98 0.66 3 1 C4.1875 3.5625 4.1875 3.5625 5 6 C2.525 5.01 2.525 5.01 0 4 C0 2.68 0 1.36 0 0 Z " fill="#979797" transform="translate(321,345)"/>
<path d="M0 0 C4.875 4.625 4.875 4.625 6 8 C5.34 8 4.68 8 4 8 C4 7.34 4 6.68 4 6 C3.01 5.67 2.02 5.34 1 5 C0.67 3.35 0.34 1.7 0 0 Z " fill="#9D9D9D" transform="translate(315,337)"/>
<path d="M0 0 C0.99 0.33 1.98 0.66 3 1 C3 1.66 3 2.32 3 3 C3.66 3 4.32 3 5 3 C5.33 4.65 5.66 6.3 6 8 C5.34 8 4.68 8 4 8 C0 2.58823529 0 2.58823529 0 0 Z " fill="#737373" transform="translate(334,316)"/>
<path d="M0 0 C1.32 0.33 2.64 0.66 4 1 C4 2.65 4 4.3 4 6 C2.68 6.33 1.36 6.66 0 7 C0.2784375 6.1028125 0.2784375 6.1028125 0.5625 5.1875 C1.22093687 2.83591238 1.22093687 2.83591238 0 0 Z " fill="#4C4C4C" transform="translate(190,244)"/>
<path d="M0 0 C1.32 0 2.64 0 4 0 C4.33 1.98 4.66 3.96 5 6 C4.34 6 3.68 6 3 6 C2.01 4.02 1.02 2.04 0 0 Z " fill="#8E8E8E" transform="translate(265,226)"/>
<path d="M0 0 C0.99 0.33 1.98 0.66 3 1 C3 1.66 3 2.32 3 3 C3.99 3.33 4.98 3.66 6 4 C5.67 5.32 5.34 6.64 5 8 C4.16382818 6.8562364 3.33113541 5.70992861 2.5 4.5625 C2.0359375 3.92441406 1.571875 3.28632813 1.09375 2.62890625 C0 1 0 1 0 0 Z " fill="#9E9E9E" transform="translate(259,218)"/>
<path d="M0 0 C4.875 4.625 4.875 4.625 6 8 C5.01 7.67 4.02 7.34 3 7 C3 6.34 3 5.68 3 5 C2.34 5 1.68 5 1 5 C0.67 3.35 0.34 1.7 0 0 Z " fill="#969696" transform="translate(160,135)"/>
<path d="M0 0 C1.32 0 2.64 0 4 0 C4.33 1.98 4.66 3.96 5 6 C4.34 6 3.68 6 3 6 C2.01 4.02 1.02 2.04 0 0 Z " fill="#6C6C6C" transform="translate(187,123)"/>
<path d="M0 0 C0.66 0 1.32 0 2 0 C2.33 1.32 2.66 2.64 3 4 C3.66 4 4.32 4 5 4 C5.33 5.32 5.66 6.64 6 8 C5.34 8 4.68 8 4 8 C0 3.64705882 0 3.64705882 0 0 Z " fill="#7C7C7C" transform="translate(159,85)"/>
<path d="M0 0 C4.8 3.44615385 4.8 3.44615385 5.8125 6.25 C5.874375 6.8275 5.93625 7.405 6 8 C4 8 4 8 2.4375 6.8125 C0.67318459 4.5879284 0.37596209 2.78211944 0 0 Z " fill="#989898" transform="translate(182,48)"/>
<path d="M0 0 C0.66 0 1.32 0 2 0 C1.67 1.65 1.34 3.3 1 5 C-0.65 5.33 -2.3 5.66 -4 6 C-3.34 5.67 -2.68 5.34 -2 5 C-1.27840576 3.35636866 -0.60648579 1.68949614 0 0 Z " fill="#DEDEDE" transform="translate(117,413)"/>
<path d="M0 0 C0.33 0.66 0.66 1.32 1 2 C-0.25 4.5625 -0.25 4.5625 -2 7 C-2.99 7.33 -3.98 7.66 -5 8 C-3.62845496 5.04590299 -2.01136276 2.55991624 0 0 Z " fill="#222222" transform="translate(92,362)"/>
<path d="M0 0 C4.875 4.625 4.875 4.625 6 8 C5.01 7.67 4.02 7.34 3 7 C3 6.34 3 5.68 3 5 C2.34 5 1.68 5 1 5 C0.67 3.35 0.34 1.7 0 0 Z " fill="#B0B0B0" transform="translate(396,329)"/>
<path d="M0 0 C1.32 0.33 2.64 0.66 4 1 C4.33 2.65 4.66 4.3 5 6 C4.01 5.67 3.02 5.34 2 5 C0.8125 2.4375 0.8125 2.4375 0 0 Z " fill="#757575" transform="translate(340,324)"/>
<path d="M0 0 C0.99 0.33 1.98 0.66 3 1 C3 1.66 3 2.32 3 3 C3.66 3 4.32 3 5 3 C5.33 4.65 5.66 6.3 6 8 C1.125 3.375 1.125 3.375 0 0 Z " fill="#A5A5A5" transform="translate(237,305)"/>
<path d="M0 0 C1.9375 0.75 1.9375 0.75 4 2 C4.75 4.125 4.75 4.125 5 6 C3.0625 5.25 3.0625 5.25 1 4 C0.25 1.875 0.25 1.875 0 0 Z " fill="#7E7E7E" transform="translate(369,295)"/>
<path d="M0 0 C1.32 0.33 2.64 0.66 4 1 C4.33 2.65 4.66 4.3 5 6 C4.01 5.67 3.02 5.34 2 5 C0.8125 2.4375 0.8125 2.4375 0 0 Z " fill="#919191" transform="translate(304,277)"/>
<path d="M0 0 C0.33 0.66 0.66 1.32 1 2 C1.66 2 2.32 2 3 2 C6 5.46153846 6 5.46153846 6 8 C5.01 7.67 4.02 7.34 3 7 C3 6.34 3 5.68 3 5 C2.34 5 1.68 5 1 5 C0.67 3.35 0.34 1.7 0 0 Z " fill="#BABABA" transform="translate(318,226)"/>
<path d="M0 0 C0 0.66 0 1.32 0 2 C-0.66 2 -1.32 2 -2 2 C-2.28875 2.61875 -2.5775 3.2375 -2.875 3.875 C-4 6 -4 6 -6 8 C-5.62403791 5.21788056 -5.32681541 3.4120716 -3.5625 1.1875 C-2 0 -2 0 0 0 Z " fill="#E8E8E8" transform="translate(304,193)"/>
<path d="M0 0 C1.32 0.33 2.64 0.66 4 1 C4.33 2.65 4.66 4.3 5 6 C4.01 5.67 3.02 5.34 2 5 C0.8125 2.4375 0.8125 2.4375 0 0 Z " fill="#7D7D7D" transform="translate(182,116)"/>
<path d="M0 0 C0.33 0.99 0.66 1.98 1 3 C-0.65 4.65 -2.3 6.3 -4 8 C-4 4.09161134 -2.49432124 2.88405893 0 0 Z " fill="#494949" transform="translate(319,93)"/>
<path d="M0 0 C0.99 0.33 1.98 0.66 3 1 C3 1.66 3 2.32 3 3 C3.66 3 4.32 3 5 3 C5.33 4.65 5.66 6.3 6 8 C1.125 3.375 1.125 3.375 0 0 Z " fill="#787878" transform="translate(62,77)"/>
</svg>
